<?xml version="1.0" standalone="no"?>
<!DOCTYPE svg PUBLIC "-//W3C//DTD SVG 1.1//EN" "http://www.w3.org/Graphics/SVG/1.1/DTD/svg11.dtd" >
<svg xmlns="http://www.w3.org/2000/svg">
<metadata>
This is a custom SVG webfont generated by Font Squirrel.
Copyright   : Copyright c 2011 by vernon adams All rights reserved withReserved Font Names Tienne and Tienne Regular ThisFont Software is licensed under the SIL Open Font License Version11 This license is available with a FAQ athttpscriptssilorgOFL
Designer    : vernon adams
Foundry     : vernon adams
</metadata>
<defs>
<font id="RokkittBold" horiz-adv-x="1553" >
<font-face units-per-em="2048" ascent="1638" descent="-410" />
<missing-glyph horiz-adv-x="563" />
<glyph unicode=" "  horiz-adv-x="563" />
<glyph unicode="&#x09;" horiz-adv-x="563" />
<glyph unicode="&#xa0;" horiz-adv-x="563" />
<glyph unicode="!" horiz-adv-x="665" d="M183 0v298h300l-24 -298h-276zM209 1114v389h250v-389l-56 -611h-134z" />
<glyph unicode="&#x22;" horiz-adv-x="1007" d="M176 1503h266l-55 -572h-150zM581 1503h265l-55 -572h-149z" />
<glyph unicode="#" horiz-adv-x="1531" d="M107 413v165h244l56 354h-284v166h319l71 426h184l-71 -426h396l73 426h185l-73 -426h220v-166h-252l-57 -354h294v-165h-327l-71 -427h-184l70 427h-399l-72 -427h-182l69 427h-209zM534 578h398l57 354h-399z" />
<glyph unicode="$" horiz-adv-x="1236" d="M106 1109q0 96 32 170t89 125t135 78.5t171 32.5v166h163v-183q47 -15 95.5 -39.5t85.5 -58.5v94h203v-431h-196v112q-32 51 -80 85t-108 47v-431q85 -25 167.5 -58.5t147.5 -87.5t105.5 -132t40.5 -190q0 -99 -36.5 -178t-100 -134t-147 -85.5t-177.5 -32.5v-143h-163 v161q-114 29 -206 113v-109h-211v501h210v-136q42 -70 91.5 -113.5t115.5 -64.5v486q-82 26 -158 58t-136.5 81t-96.5 121t-36 176zM347 1137q0 -42 14 -74t38.5 -57.5t58.5 -44t75 -34.5v384q-90 -13 -138 -60.5t-48 -113.5zM696 178q47 8 84.5 27t64 48t40.5 65.5t14 80.5 t-14.5 78.5t-42 61t-64 46.5t-82.5 37v-444z" />
<glyph unicode="%" horiz-adv-x="2055" d="M84 1132q0 99 25.5 173.5t70.5 125t108 75.5t136 25q74 0 137 -25t108.5 -75.5t71 -125t25.5 -173.5q0 -100 -25.5 -174.5t-71 -125t-108.5 -75.5t-137 -25q-73 0 -136 25t-108 75.5t-70.5 125t-25.5 174.5zM289 1134q0 -140 37.5 -201t99.5 -61t98 64t36 193 q0 142 -37 201.5t-100 59.5q-60 0 -97 -60.5t-37 -195.5zM363 0l1181 1534l97 -70l-1176 -1533zM1290 368q0 101 25.5 176t71 124.5t108 75t136.5 25.5t137 -25.5t108.5 -76t71.5 -125.5t26 -174q0 -100 -26 -174.5t-71.5 -124t-108.5 -75t-137 -25.5t-136.5 24.5t-108 74.5 t-71 125t-25.5 175zM1496 371q0 -140 36.5 -201t99.5 -61t98.5 64t35.5 195q0 139 -37 198.5t-99 59.5q-61 0 -97.5 -59.5t-36.5 -195.5z" />
<glyph unicode="&#x26;" horiz-adv-x="1633" d="M77 433q0 76 26.5 140.5t77 119t124 98.5t166.5 80q-66 85 -102.5 160t-36.5 155q0 71 30 132t83 105t125.5 69t157.5 25q80 0 149 -24t119 -66.5t78 -100.5t28 -124q0 -125 -74 -219.5t-238 -168.5l292 -338q57 70 91.5 157.5t55.5 179.5h323v-181l-171 -1 q-33 -98 -75.5 -174.5t-96.5 -137.5l107 -136h237v-183h-376l-117 154q-104 -89 -216 -133t-239 -44q-114 0 -210.5 34.5t-167 96t-110.5 144.5t-40 181zM325 446q0 -54 24 -102.5t67 -85.5t101.5 -58.5t128.5 -21.5q81 0 153.5 31t140.5 97l-355 426q-130 -51 -195 -121 t-65 -165zM555 1194q0 -46 31 -100.5t94 -135.5q110 52 163.5 106t53.5 125q0 36 -13 65t-36 49t-53.5 31.5t-67.5 11.5q-75 0 -123.5 -40t-48.5 -112z" />
<glyph unicode="'" horiz-adv-x="617" d="M180 1503h265l-55 -572h-150z" />
<glyph unicode="(" horiz-adv-x="717" d="M97 599q0 160 43.5 288t119.5 226.5t179 167t222 109.5l2 -171q-84 -36 -150.5 -88t-112 -127t-69 -175t-23.5 -230q0 -133 24.5 -233t70 -174.5t111 -126t149.5 -87.5l-2 -172q-119 40 -222 109t-179 167.5t-119.5 227.5t-43.5 289z" />
<glyph unicode=")" horiz-adv-x="717" d="M48 -22q82 36 148.5 87.5t112 126t70 174.5t24.5 233q0 130 -24 230t-69.5 175t-111.5 127t-150 88l1 171q120 -41 222.5 -110.5t178.5 -167t120 -226t44 -287.5q0 -160 -44 -289t-120 -227.5t-178.5 -167.5t-222.5 -109z" />
<glyph unicode="*" horiz-adv-x="1212" d="M111 1027l59 193l182 -60l235 -149l-69 272v186h198v-186l-69 -272l235 149l183 60l58 -193l-176 -63l-269 -17l204 -173l111 -155l-164 -118l-113 156l-100 253l-98 -253l-113 -156l-165 118l112 155l204 173l-268 17z" />
<glyph unicode="+" horiz-adv-x="1421" d="M98 621v183h515v501h195v-501h515v-183h-515v-502h-195v502h-515z" />
<glyph unicode="," horiz-adv-x="615" d="M144 -208q44 9 75 23.5t50.5 38.5t28 60.5t8.5 86.5h-157q0 20 -0.5 60t-1.5 84t-1 84v61q23 3 63.5 4t86 2.5t88.5 1.5h67q2 -18 3.5 -54t3 -78t2 -80.5t0.5 -59.5q0 -89 -15.5 -156t-52.5 -112.5t-97.5 -68t-150.5 -22.5v125z" />
<glyph unicode="-" horiz-adv-x="804" d="M113 439v183h584v-183h-584z" />
<glyph unicode="." horiz-adv-x="615" d="M148 0v293h303v-293h-303z" />
<glyph unicode="/" horiz-adv-x="1063" d="M98 0l706 1540l158 -44l-705 -1540z" />
<glyph unicode="0" horiz-adv-x="1284" d="M106 748q0 176 33 318t99.5 242t167 154.5t235.5 54.5t236 -54.5t168 -154t100 -241.5t33 -319t-33 -319t-100 -243t-168 -155t-236 -54t-235.5 54t-167 155t-99.5 243.5t-33 318.5zM354 747q0 -143 15 -253.5t48.5 -186.5t88.5 -115t135 -39q74 0 128.5 33.5t90 106 t53 185t17.5 270.5q0 159 -18 271.5t-53.5 184.5t-89.5 105t-128 33q-80 0 -135 -40t-88.5 -115.5t-48.5 -187t-15 -252.5z" />
<glyph unicode="1" horiz-adv-x="921" d="M128 1322v172h469v-1321h200v-173h-654v173h212v1149h-227z" />
<glyph unicode="2" horiz-adv-x="1225" d="M89 0q0 134 36.5 240t95.5 192t134 156.5t153 133.5l106 86q56 43 103 91t77.5 101.5t30.5 116.5q0 99 -58.5 157.5t-166.5 58.5q-71 0 -119.5 -21.5t-79.5 -65.5t-45 -112t-15 -160h-213q0 276 118 409.5t352 133.5q128 0 220 -35.5t151 -92.5t87 -130t28 -148 q0 -80 -28 -145.5t-74.5 -121.5t-107 -104.5t-125.5 -95.5l-131 -96q-66 -49 -123 -105t-100.5 -122t-64.5 -148h570v299h184v-472h-995z" />
<glyph unicode="3" horiz-adv-x="1241" d="M79 448h221q12 -134 81.5 -209t207.5 -75q72 0 126.5 19t92.5 53.5t58 80.5t20 101q0 80 -31 131.5t-86.5 81.5t-133.5 41.5t-173 11.5v189q93 0 163 10t117.5 37t72 74t24.5 120q0 45 -15.5 84t-47 68t-77.5 45.5t-109 16.5q-64 0 -108.5 -16.5t-73 -46t-42.5 -70 t-15 -88.5l-222 1q4 94 37 169.5t93 129t144.5 82t191.5 28.5q111 0 201 -27.5t152.5 -78.5t96.5 -125t34 -169q0 -56 -16 -107t-48 -94t-79 -75.5t-109 -50.5q155 -38 233 -132.5t78 -234.5q0 -100 -38.5 -182t-109.5 -140.5t-173 -91t-229 -32.5q-113 0 -205.5 28.5 t-159 88t-104.5 148t-40 206.5z" />
<glyph unicode="4" horiz-adv-x="1173" d="M39 411v202l608 881h219v-916h216v-167h-216v-238h166v-173h-579v173h190v238h-604zM235 578h408v624z" />
<glyph unicode="5" horiz-adv-x="1236" d="M97 417h224q23 -124 88.5 -191t190.5 -67q70 0 123.5 23t89.5 64.5t53.5 98t17.5 121.5q0 80 -20 139t-57 98t-87 58t-109 19q-72 0 -140 -29.5t-132 -93.5l-140 70v767h848v-314h-192v142h-475q-1 -18 -4 -54l-7 -83q-4 -46 -7.5 -96.5t-7 -96t-6 -82.5t-4.5 -55 q63 65 138 93.5t169 28.5q109 0 199 -37t153 -103t97.5 -158t34.5 -203q0 -97 -30 -187t-94 -158.5t-164 -110.5t-241 -43q-228 0 -358.5 114t-150.5 326z" />
<glyph unicode="6" horiz-adv-x="1236" d="M107 736q0 178 34 322t102.5 246t172 157.5t243.5 55.5q96 0 174 -28t134 -79t89.5 -123.5t39.5 -162.5h-198q-20 97 -78.5 155.5t-152.5 58.5q-78 0 -137.5 -36t-100 -102.5t-62 -160.5t-23.5 -210q66 58 155 86t191 28q97 0 178.5 -33.5t138.5 -94t89 -144t32 -183.5 q0 -113 -32.5 -207t-94 -161.5t-150 -105t-200.5 -37.5q-137 0 -239 51t-169.5 147.5t-101.5 238t-34 322.5zM349 645q8 -114 26.5 -203.5t53.5 -151t87 -94t127 -32.5q63 0 111 22.5t80.5 63t49 96.5t16.5 123q0 62 -16.5 114.5t-49 90t-80 58.5t-108.5 21q-32 0 -71 -7 t-79 -20.5t-78 -33.5t-69 -47z" />
<glyph unicode="7" horiz-adv-x="1124" d="M93 1097v397h983v-161q-92 -109 -172 -250.5t-139.5 -296.5t-95.5 -313t-39 -300h183v-173h-632v173h200q11 152 50 309.5t99 306.5t137 286t162 246h-541v-224h-195z" />
<glyph unicode="8" horiz-adv-x="1287" d="M97 411q0 131 70 226t216 140q-130 59 -186 146.5t-56 201.5q0 89 35.5 161t100 123t156.5 79.5t208 28.5q115 0 207.5 -28t157 -79t99.5 -123t35 -159q0 -116 -54.5 -202t-185.5 -146q146 -44 216 -140t70 -229q0 -94 -36 -173t-104.5 -137.5t-169.5 -91t-233 -32.5 q-136 0 -239 33t-171 91.5t-102 138t-34 171.5zM344 423q0 -58 21 -106t60 -83t94 -54.5t124 -19.5q68 0 122 19t93 53.5t59.5 82t20.5 104.5q0 125 -77 195.5t-235 74.5q-138 -5 -210 -76t-72 -190zM375 1105q0 -107 72.5 -171t204.5 -72q120 9 188.5 73t68.5 170 q0 50 -17 92.5t-50.5 72.5t-84 47.5t-116.5 17.5q-128 0 -197 -61.5t-69 -168.5z" />
<glyph unicode="9" horiz-adv-x="1237" d="M106 1005q0 116 32.5 210t94.5 161t150.5 104t201.5 37q272 0 407.5 -192t135.5 -565q0 -182 -35 -327t-106 -246.5t-177 -155.5t-249 -54q-95 1 -171 30t-131 81.5t-86.5 126.5t-34.5 164l204 -1q17 -101 78 -157t165 -56q141 0 222 126t84 387q-66 -63 -155 -94.5 t-191 -31.5q-97 0 -177.5 33.5t-139 93t-90.5 143t-32 183.5zM333 1026q0 -62 17.5 -113t50 -87t80 -56.5t107.5 -20.5q32 0 70.5 8t78.5 24t79 41t70 59q-8 107 -26.5 190t-53 140.5t-86.5 88t-127 30.5q-64 0 -112.5 -23t-81 -63.5t-49.5 -96t-17 -121.5z" />
<glyph unicode=":" horiz-adv-x="622" d="M155 98v299h312v-299h-312zM155 764v301h312v-301h-312z" />
<glyph unicode=";" horiz-adv-x="621" d="M155 -111q49 4 81 18t50.5 40t25.5 63.5t7 87.5h-160v301l312 1v-299q0 -83 -14 -145.5t-50.5 -105t-97.5 -64.5t-154 -23v126zM155 764v301h312v-301h-312z" />
<glyph unicode="&#x3c;" horiz-adv-x="1474" d="M139 652v167l1128 523v-201l-893 -404l893 -406v-202z" />
<glyph unicode="=" horiz-adv-x="1511" d="M200 305v183h1110v-183h-1110zM200 796v184h1110v-184h-1110z" />
<glyph unicode="&#x3e;" horiz-adv-x="1473" d="M171 129v202l892 406l-892 404v201l1127 -523v-167z" />
<glyph unicode="?" horiz-adv-x="979" d="M54 1093q0 119 39 199.5t103 130t147 72t170 22.5q92 0 173.5 -28t141 -79t94 -123.5t34.5 -162.5q0 -67 -18 -116t-46.5 -85t-62.5 -62.5t-68 -48.5q-38 -26 -75.5 -55.5t-68 -74t-51.5 -107.5t-26 -157h-171q0 106 16 181.5t42 129t58.5 90t67 63.5t67 49t58.5 48 t42 60.5t16 84.5q0 52 -17.5 94t-47.5 71.5t-70 45.5t-86 16q-125 0 -186.5 -67.5t-61.5 -190.5h-213zM341 0v257h240v-257h-240z" />
<glyph unicode="@" horiz-adv-x="1744" d="M64 686q0 102 24.5 203.5t73 194t119.5 172t164.5 137t208.5 91t250 33.5q126 0 228.5 -26.5t182.5 -72t137.5 -108.5t95 -135.5t56 -152.5t18.5 -160q0 -114 -35 -222.5t-99.5 -192.5t-156.5 -134.5t-207 -50.5q-47 0 -80.5 30.5t-43.5 108.5q-55 -75 -123 -107 t-139 -32q-64 0 -123.5 26t-106 75.5t-74.5 123t-28 167.5q0 63 12 127t37.5 122.5t63.5 110t88.5 89t113.5 59.5t138 22q73 0 136 -35.5t102 -114.5l25 131h176l-126 -584q-8 -40 -13.5 -64.5t-9 -38t-4 -19t-0.5 -6.5q0 -18 6 -29.5t24 -11.5q30 0 78 29t94.5 85.5 t79.5 141t33 193.5q0 100 -36.5 192t-107.5 163t-175.5 114t-242.5 43q-144 0 -265 -51t-209 -143t-138 -218t-50 -277q0 -140 45 -255t131 -197t213 -127t291 -45q137 0 250.5 34.5t204.5 105.5l91 -108q-108 -83 -240.5 -128t-305.5 -45q-146 0 -265.5 30t-214 83 t-164.5 125.5t-116.5 158t-69 179.5t-22.5 191zM579 652q0 -49 12 -94.5t36.5 -80t60.5 -55t87 -20.5q56 0 105.5 38t86.5 98.5t58.5 135.5t21.5 148q0 99 -55.5 158t-148.5 59q-64 0 -113.5 -35t-82.5 -91t-50.5 -124.5t-17.5 -136.5z" />
<glyph unicode="A" d="M-14 0v173h181l359 1149h-145v172h789v-172h-145l364 -1149h177v-173h-634v173h192l-96 363h-529l-98 -363h196v-173h-611zM551 710h427l-186 612h-50z" />
<glyph unicode="B" horiz-adv-x="1420" d="M80 0v173h191v1149h-191v172h659q127 0 224 -27t162.5 -78t99 -123t33.5 -161q0 -58 -16 -107.5t-44 -89.5t-67.5 -70t-86.5 -50q129 -40 206 -133.5t77 -231.5q0 -75 -26.5 -150t-91 -136t-173.5 -99t-275 -38h-681zM540 173h170q96 0 161 18t105 52t57 82.5t17 109.5 q0 112 -81 178.5t-252 66.5h-177v-507zM540 867h144q161 0 232.5 58t71.5 167q0 58 -18 101t-58 72t-103.5 43t-152.5 14h-116v-455z" />
<glyph unicode="C" horiz-adv-x="1649" d="M87 745q0 171 53 312.5t152.5 243.5t243 159t324.5 57q145 0 260 -48t201 -130v155h202v-471h-191q-37 79 -85.5 135.5t-106.5 93t-123.5 53t-137.5 16.5q-116 0 -208.5 -43t-157.5 -119.5t-99.5 -181t-34.5 -228.5q0 -122 32 -227t95 -182.5t156.5 -122t215.5 -44.5 q81 0 157.5 21t140 66t110 114.5t71.5 165.5l210 -100q-42 -134 -114.5 -222.5t-165.5 -142t-202.5 -75.5t-225.5 -23q-194 1 -338.5 62.5t-241 166t-144.5 243.5t-48 296z" />
<glyph unicode="D" horiz-adv-x="1690" d="M75 0v173h213v1149h-213v172h739q200 0 347.5 -57t244.5 -156.5t145 -234.5t48 -290q0 -174 -49 -314.5t-147.5 -238t-246 -150.5t-343.5 -53h-738zM557 173h233q144 0 245.5 43.5t164.5 120t92 182.5t29 230q0 123 -29.5 228t-92 182t-162 120t-237.5 43h-243v-1149z " />
<glyph unicode="E" horiz-adv-x="1458" d="M76 0v173h195v1149h-195v172h1278v-428h-204v256h-611v-466h403v143h126v-465h-126v139h-402v-500h613v264h204v-437h-1281z" />
<glyph unicode="F" horiz-adv-x="1343" d="M73 0v173h200v1149h-200v172h1237v-426h-208v254h-560v-465h342v138h131v-461h-131v139h-342v-500h212v-173h-681z" />
<glyph unicode="G" horiz-adv-x="1736" d="M92 750q0 141 45.5 278t140.5 246t240 176t345 67q151 0 272.5 -47.5t203.5 -125.5v150h211v-472h-191q-67 149 -184.5 224t-279.5 75q-120 0 -215 -42t-160.5 -117t-100 -179t-34.5 -227q0 -132 35.5 -240t103.5 -184t163 -117.5t216 -41.5q222 5 335 103.5t119 274.5 h-291v185h575q-3 -200 -55.5 -343t-149.5 -236t-235 -136.5t-309 -43.5q-153 0 -271.5 33.5t-207 92t-150 135.5t-100 163t-55 176t-16.5 173z" />
<glyph unicode="H" horiz-adv-x="1687" d="M85 0v173h179v1149h-179v172h623v-172h-174v-445h621v445h-173v172h621v-172h-180v-1149h180v-173h-621v173h173v516h-621v-516h174v-173h-623z" />
<glyph unicode="I" horiz-adv-x="814" d="M82 0v173h190v1149h-190v172h649v-172h-190v-1149h190v-173h-649z" />
<glyph unicode="J" horiz-adv-x="793" d="M-31 -102h154q49 0 80 16t48 43t22.5 63.5t5.5 77.5v1224h-208v172h677v-172h-199v-1214q0 -96 -19.5 -174t-62.5 -133.5t-113.5 -85.5t-173.5 -30h-211v213z" />
<glyph unicode="K" horiz-adv-x="1558" d="M76 0v173h174v1149h-174v172h632v-172h-190v-522l489 522h-147v172h615v-172h-150l-512 -542l498 -607h186v-173h-669v173h152l-461 566v-566h176v-173h-619z" />
<glyph unicode="L" horiz-adv-x="1323" d="M71 0v173h208v1149h-208v172h682v-172h-206v-1149h503v449h222v-622h-1201z" />
<glyph unicode="M" horiz-adv-x="2126" d="M76 0v173h193v1149h-193v172h580l399 -1028l409 1028h586v-172h-191v-1149h193v-173h-626v173h180v1132l-526 -1305h-92l-524 1304v-1131h181v-173h-569z" />
<glyph unicode="N" horiz-adv-x="1729" d="M65 0v173h213v1149h-213v172h536l668 -1139v967h-208v172h629v-172h-219v-1322h-266l-727 1237v-1064h210v-173h-623z" />
<glyph unicode="O" horiz-adv-x="1769" d="M93 747q0 158 53 298.5t154.5 245t248.5 165.5t335 61q190 0 337.5 -61t249.5 -166.5t155.5 -245.5t53.5 -299q0 -156 -53.5 -295.5t-155 -244.5t-249 -166.5t-336.5 -61.5q-191 0 -338 60.5t-248.5 166t-154 245.5t-52.5 298zM385 744q0 -119 35.5 -223t101.5 -181.5 t157.5 -122t204.5 -44.5q110 0 202 42.5t158.5 119t104 181t37.5 229.5q0 123 -36 229t-102 183.5t-158 121t-204 43.5q-107 0 -199 -42.5t-159 -118.5t-105 -182.5t-38 -234.5z" />
<glyph unicode="P" horiz-adv-x="1382" d="M70 0v173h201v1149h-195v172h669q288 0 439 -117t151 -340q0 -129 -45.5 -216t-127 -139t-194.5 -74.5t-247 -22.5h-181v-412h205v-173h-675zM540 758h170q98 0 164.5 19.5t106.5 55t57 87.5t17 117q0 133 -72.5 209t-202.5 76h-240v-564z" />
<glyph unicode="Q" horiz-adv-x="1772" d="M93 744q0 155 52 295.5t152 246.5t247.5 168.5t339.5 62.5q191 0 339 -61.5t249.5 -167t154.5 -245.5t53 -299q0 -151 -51 -282t-143 -230.5t-221.5 -162.5t-285.5 -78q46 -17 95 -33t99.5 -29.5t101.5 -21.5t101 -8q27 0 53 2.5t53 8.5l-48 -222q-35 -9 -76 -9 q-79 0 -151 19.5t-142 43.5t-140.5 44.5t-148.5 20.5q-80 0 -153 -21t-145 -69l-66 191q70 46 134.5 68.5t134.5 32.5q-136 30 -245.5 98t-185 164.5t-116.5 217t-41 255.5zM386 744q0 -122 36 -225.5t101.5 -180.5t157 -121t205.5 -44q109 0 201.5 42t158.5 117.5 t103.5 181t37.5 233.5q0 123 -36 228t-102 182.5t-158.5 121t-206.5 43.5q-107 0 -198 -42.5t-158 -118.5t-104.5 -182.5t-37.5 -234.5z" />
<glyph unicode="R" horiz-adv-x="1500" d="M68 0v173h209v1149h-209v172h736q114 0 209 -22t164.5 -69.5t108.5 -121.5t39 -179q0 -150 -80 -247t-250 -140l298 -542h210v-173h-398l-363 685h-197v-512h197v-173h-674zM545 863h245q77 0 128 21t82 54.5t43 75t12 84.5q0 46 -16 86.5t-47 71.5t-77.5 48.5 t-107.5 17.5h-262v-459z" />
<glyph unicode="S" horiz-adv-x="1239" d="M106 1109q0 101 35 177.5t97 127.5t146.5 77t183.5 26q88 0 165.5 -29.5t138.5 -87.5v94h208v-431h-208v119q-55 70 -122 104.5t-156 34.5q-59 0 -104.5 -14.5t-77.5 -39.5t-48.5 -58.5t-16.5 -71.5q0 -66 35 -107.5t91.5 -72t129.5 -53t149 -48.5t149 -59t129.5 -84 t91.5 -125t35 -180q0 -102 -38.5 -182t-104.5 -135t-153 -84.5t-183 -29.5q-204 0 -351 132l-1 -109h-210v501h210v-136q59 -94 134 -143t182 -49q58 0 105.5 17t81 46.5t52 70t18.5 88.5q0 64 -29.5 107t-80 73.5t-119.5 54t-147 46.5q-83 25 -158.5 57t-132.5 82 t-91.5 121t-34.5 173z" />
<glyph unicode="T" horiz-adv-x="1392" d="M58 989v505h1277v-505h-197v333h-305v-1149h216v-173h-705v173h219v1149h-308v-333h-197z" />
<glyph unicode="U" horiz-adv-x="1555" d="M41 1322v172h624v-172h-169v-823q0 -77 16.5 -138t52 -102t92 -63.5t136.5 -22.5q84 0 142.5 21.5t94.5 64t53 105t17 142.5v816h-168v172h582v-172h-189v-805q0 -143 -37.5 -245t-108 -168t-170 -96.5t-223.5 -30.5q-170 0 -278 43t-171 119t-86 179t-23 223v781h-187z " />
<glyph unicode="V" horiz-adv-x="1567" d="M-18 1322v172h640v-172h-179l364 -1032l359 1032h-177v172h593v-172h-185l-494 -1322h-231l-506 1322h-184z" />
<glyph unicode="W" horiz-adv-x="2259" d="M-17 1322v172h607v-172h-175l292 -975l286 975h-160v172h620v-172h-157l292 -975l290 975h-177v172h568v-172h-176l-407 -1322h-226l-332 1081l-327 -1081h-223l-417 1322h-178z" />
<glyph unicode="X" horiz-adv-x="1538" d="M15 0v173h209l398 583l-392 566h-199v172h654v-172h-165l268 -403l267 403h-167v172h604v-172h-199l-384 -553l416 -596h208v-173h-674v173h172l-284 432l-283 -432h174v-173h-623z" />
<glyph unicode="Y" horiz-adv-x="1495" d="M-17 1322v172h653v-172h-176l317 -478l299 478h-174v172h607v-172h-195l-428 -646v-503h210v-173h-684v173h205v502l-447 647h-187z" />
<glyph unicode="Z" horiz-adv-x="1350" d="M90 0v186l817 1136h-582v-270h-196v442h1108v-164l-827 -1157h645v288h195v-461h-1160z" />
<glyph unicode="[" horiz-adv-x="805" d="M216 -117v1677h502v-184h-240v-1310h240v-183h-502z" />
<glyph unicode="\" horiz-adv-x="1063" d="M84 1506h210l694 -1529h-211z" />
<glyph unicode="]" horiz-adv-x="805" d="M91 66h241v1310h-241v184h503v-1677h-503v183z" />
<glyph unicode="^" horiz-adv-x="1172" d="M124 726l373 791h214l370 -791h-222l-255 596l-257 -596h-223z" />
<glyph unicode="_" horiz-adv-x="1156" d="M0 -38h1157v-131h-1157v131z" />
<glyph unicode="`" horiz-adv-x="712" d="M103 1557h318l151 -376h-203z" />
<glyph unicode="a" horiz-adv-x="1201" d="M77 287q0 92 34.5 156t96 104t144.5 57.5t182 17.5q59 0 116 -6.5t120 -18.5v105q0 51 -17 88t-47.5 61t-71.5 35.5t-89 11.5q-101 0 -169 -29.5t-125 -86.5l-124 138q73 73 184 109t256 36q124 0 209 -27t137.5 -75t75 -113.5t22.5 -143.5v-533h181v-173h-400l-11 108 q-48 -37 -91 -62t-84 -40.5t-83.5 -22t-88.5 -6.5q-81 0 -147.5 25t-112.5 68t-71.5 99t-25.5 118zM308 294q0 -33 12 -61.5t35 -50t56 -33.5t75 -12q74 0 147.5 27t136.5 78v211q-47 3 -104 12t-117 9q-48 0 -92 -8t-77 -28.5t-52.5 -55t-19.5 -88.5z" />
<glyph unicode="b" horiz-adv-x="1391" d="M33 1322v172h426v-572q79 74 163 108.5t193 34.5q114 0 205.5 -41t156.5 -112.5t100 -169t35 -209.5q0 -127 -38 -230t-105.5 -175.5t-158.5 -111.5t-196 -39q-50 0 -101 9.5t-98 28.5t-87.5 47.5t-69.5 65.5l-2 -128h-418v173h176v1149h-181zM459 311q10 -11 35 -35 t62.5 -48t85.5 -41.5t106 -17.5q74 0 131 25t97 71t61 110t21 140q0 78 -21.5 143t-61.5 113t-98 75t-132 27q-57 0 -106 -19t-85.5 -44t-61.5 -50.5t-33 -37.5v-411z" />
<glyph unicode="c" horiz-adv-x="1191" d="M73 520q0 115 38.5 214.5t108.5 173.5t167.5 115.5t213.5 41.5q48 0 91.5 -9.5t80 -26.5t67 -38.5t52.5 -44.5l-1 98h200v-386h-193q-12 47 -33.5 87t-54.5 69t-77 45t-102 16q-73 0 -130 -25t-95.5 -70.5t-59 -110t-20.5 -143.5q0 -81 20.5 -147.5t59 -113t95.5 -71.5 t130 -25q96 0 180 42t137 126l164 -105q-74 -126 -194 -190.5t-291 -64.5q-140 0 -244.5 46.5t-173.5 123t-102.5 174t-33.5 199.5z" />
<glyph unicode="d" horiz-adv-x="1391" d="M81 526q0 112 36 210.5t101 172t157 115t206 41.5q107 0 191 -34.5t162 -104.5v396h-195v172h437v-1321h179v-173h-424v121q-70 -75 -160.5 -109.5t-191.5 -34.5q-98 0 -188 35.5t-158.5 105t-110 172t-41.5 236.5zM333 515q0 -75 21 -139t60.5 -110t97 -71.5 t131.5 -25.5q57 0 105.5 17.5t85.5 40.5t62 46t36 35v415l-36 37q-25 26 -62.5 51t-87 44.5t-105.5 19.5q-74 0 -131 -27.5t-96.5 -75.5t-60 -113.5t-20.5 -143.5z" />
<glyph unicode="e" horiz-adv-x="1250" d="M75 517q0 119 43 220t120 174t181.5 113.5t228.5 40.5q131 0 229 -45.5t164 -126t99 -188.5t33 -234h-843q5 -66 27.5 -122.5t65 -98t104.5 -65t143 -23.5q88 0 174.5 34.5t151.5 99.5l133 -127q-70 -92 -189.5 -142t-280.5 -50q-135 0 -243 41t-184 113t-116.5 171 t-40.5 215zM333 616h605q-8 59 -31 108.5t-59 85.5t-86.5 56.5t-114.5 20.5q-139 0 -216 -74t-98 -197z" />
<glyph unicode="f" horiz-adv-x="744" d="M73 872v172h159v126q0 77 18 141t58 109.5t103 71t154 25.5q54 0 105.5 -12t91.5 -43.5t64 -85t24 -135.5h-191q0 59 -27 83t-59 24q-54 0 -75.5 -42t-21.5 -140v-122h191v-172h-191v-699h194v-173h-593v173h155v699h-159z" />
<glyph unicode="g" horiz-adv-x="1386" d="M74 523q0 113 35.5 212t101 172t158 115.5t207.5 42.5q103 0 187 -34.5t162 -108.5v122h428v-172h-185v-918q0 -382 -536 -382q-139 0 -244 29t-184 94l108 144q62 -47 131.5 -73t167.5 -26q64 0 121.5 12t100.5 37t68 63.5t25 90.5v166q-31 -29 -71.5 -52t-86.5 -39 t-96.5 -24.5t-99.5 -8.5q-106 0 -197 38.5t-158 109t-105 169.5t-38 221zM325 515q0 -73 21 -134.5t60.5 -107t97.5 -71t132 -25.5q56 0 105 17.5t85.5 40t61.5 44.5l37 32v415q-10 11 -34.5 35.5t-61.5 49.5t-85.5 44.5t-105.5 19.5q-73 0 -131.5 -27.5t-99 -75.5 t-61.5 -113.5t-21 -143.5z" />
<glyph unicode="h" horiz-adv-x="1344" d="M38 0v173h186v1149h-183v172h424v-548q93 63 178.5 91t178.5 28q161 0 242.5 -88.5t81.5 -249.5v-554h161v-173h-516v173h116v507q0 42 -7.5 77.5t-25.5 61.5t-48 41t-76 15q-64 0 -136.5 -25t-148.5 -74v-603h154v-173h-581z" />
<glyph unicode="i" horiz-adv-x="702" d="M82 0v173h169v699h-169v172h410v-871h169v-173h-579zM231 1376q0 27 11 52t29.5 42.5t44 28t54.5 10.5q30 0 55.5 -10.5t45 -28t30.5 -42.5t11 -52q0 -28 -11 -52t-30.5 -42t-45 -28t-55.5 -10q-29 0 -54.5 10t-44 28t-29.5 42t-11 52z" />
<glyph unicode="j" horiz-adv-x="643" d="M-59 -229h118q48 0 79.5 12.5t50.5 38t26.5 66.5t7.5 96v888h-206v172h449v-986q0 -107 -11 -195t-52 -151t-122.5 -98t-221.5 -35h-118v192zM198 1376q0 27 10.5 52t29.5 42.5t45 28t55 10.5q30 0 55 -10.5t45 -28t31 -42.5t11 -52q0 -28 -11 -52t-31 -42t-45 -28 t-55 -10q-60 0 -100 38t-40 94z" />
<glyph unicode="k" horiz-adv-x="1338" d="M42 1322v172h427v-942l392 320h-178v172h597v-172h-171l-385 -331l400 -368h171v-173h-547v173h103l-382 353v-353h135v-173h-561v173h186v1149h-187z" />
<glyph unicode="l" horiz-adv-x="683" d="M44 0v173h186v1149h-183v172h424v-1321h166v-173h-593z" />
<glyph unicode="m" horiz-adv-x="2075" d="M64 0v173h193v699h-187v172h427v-39q0 -22 1 -43q0 -24 1 -48q88 70 176 110.5t182 40.5q106 0 179 -44t117 -128q54 42 103 74t97 54t96.5 33t101.5 11q78 0 138.5 -23.5t102.5 -67t63.5 -105t21.5 -137.5v-563h161v-169h-544v169h143v480q0 53 -8 95t-26.5 71t-49 44.5 t-77.5 15.5q-39 0 -78.5 -13t-76.5 -34.5t-71 -48.5t-61 -56v-550h154v-173h-531v173h134v470q0 117 -35 174.5t-125 57.5q-37 0 -71.5 -10t-69 -28.5t-70 -45.5t-76.5 -62v-556h155v-173h-590z" />
<glyph unicode="n" horiz-adv-x="1359" d="M75 872v172h423v-28q0 -18 0.5 -38.5t1.5 -38t1 -23.5q92 74 176 111.5t174 37.5q67 0 124 -22t98 -65t65 -107.5t24 -149.5v-40v-69q-1 -42 -1 -90v-96v-253h176v-173h-531v173h115v485q0 106 -30 161.5t-106 55.5q-79 0 -151 -41.5t-133 -104.5v-556h148v-173h-569v173 h177v699h-182z" />
<glyph unicode="o" horiz-adv-x="1265" d="M77 522q0 119 41.5 219t115.5 172t176 112t223 40q125 0 227 -40.5t175 -113t113.5 -172t40.5 -217.5q0 -117 -40 -217t-113 -172.5t-175.5 -114t-229.5 -41.5q-124 0 -226 41t-175 113.5t-113 172t-40 218.5zM330 520q0 -77 20.5 -142.5t60 -111.5t95.5 -71.5t126 -25.5 t126 25.5t95.5 72.5t60.5 111.5t21 143.5q0 77 -21 142t-60.5 112t-95.5 73t-127 26q-70 0 -126 -26t-95 -73t-59.5 -112t-20.5 -144z" />
<glyph unicode="p" horiz-adv-x="1380" d="M34 -221h181v1093h-181v172h419l3 -126q78 75 164 111t191 36q113 0 205 -41.5t156.5 -114.5t99.5 -171t35 -212q0 -124 -38.5 -225.5t-105.5 -173.5t-158 -111t-196 -39q-99 0 -192.5 34.5t-160.5 102.5v-335h207v-185h-629v185zM456 301q11 -11 37 -33t63 -44t85 -38.5 t106 -16.5q73 0 131 25.5t98 71.5t61 110t21 139q0 78 -21.5 143.5t-61.5 113.5t-98 75.5t-132 27.5q-57 0 -106.5 -19.5t-86.5 -44.5t-61.5 -49.5t-34.5 -35.5v-425z" />
<glyph unicode="q" horiz-adv-x="1383" d="M74 528q0 113 35.5 210.5t101.5 170.5t159.5 114.5t210.5 41.5q199 0 343 -147l2 126h422v-172h-181v-1095h181v-183h-628v183h204v339q-67 -70 -159 -104.5t-193 -34.5q-106 0 -196.5 39t-158 111t-105.5 173.5t-38 227.5zM323 515q0 -75 21 -139t61 -110t97.5 -71.5 t130.5 -25.5q57 0 105.5 17.5t86 41.5t63.5 48l36 35v411q-10 12 -34.5 37.5t-61.5 51t-85 45t-103 19.5q-78 0 -137 -27.5t-99 -75.5t-60.5 -113.5t-20.5 -143.5z" />
<glyph unicode="r" horiz-adv-x="991" d="M75 0v173h203v699h-203v172h412l1 -236q32 71 72 120.5t88.5 80t105.5 43.5t122 13q21 0 46.5 -2.5t38.5 -3.5l-3 -221h-11q-11 0 -25 2h-28q-14 0 -21 1q-96 0 -163 -24.5t-109.5 -72.5t-62 -118t-19.5 -160v-293h221v-173h-665z" />
<glyph unicode="s" horiz-adv-x="1073" d="M95 764q0 63 27.5 118t78 95.5t122 64t158.5 23.5q73 0 140.5 -21.5t116.5 -64.5v65h199v-324h-199v84q-38 45 -93.5 69t-136.5 24q-91 0 -143.5 -31.5t-52.5 -88.5q0 -38 29.5 -62t77.5 -40t109.5 -28t125.5 -28t125.5 -39.5t109.5 -61.5t77.5 -95.5t29.5 -139.5 q0 -68 -28 -124.5t-81.5 -97t-130 -62.5t-171.5 -22q-97 0 -164 20.5t-122 65.5v-63h-192v348h192v-82q34 -58 101 -89t156 -31q105 0 161.5 33t56.5 97q0 40 -29 65.5t-77 42.5t-109 30t-125 29t-125 38t-108.5 58.5t-76.5 90.5t-29 134z" />
<glyph unicode="t" horiz-adv-x="733" d="M44 872v172h155v323l240 55v-378h250v-172h-250v-553q0 -79 17.5 -112.5t65.5 -33.5h178v-173h-226q-147 0 -212 78.5t-65 226.5v567h-153z" />
<glyph unicode="u" horiz-adv-x="1337" d="M32 872v172h398v-685q0 -93 33 -141.5t116 -48.5q75 0 146 41t130 109v553h-174v172h417v-871h181v-173h-419l-5 118q-81 -70 -165.5 -105.5t-172.5 -35.5q-85 0 -147 24.5t-103 70t-60 111t-19 148.5v541h-156z" />
<glyph unicode="v" horiz-adv-x="1257" d="M-4 872v172h562v-172h-137l96 -269l37 -107l38 -100l32 -83q14 -36 23 -56l236 615h-144v172h522v-172h-164l-353 -872h-210l-359 872h-179z" />
<glyph unicode="w" horiz-adv-x="1744" d="M10 872v172h460v-172h-108l193 -625l192 625h-125v172h510v-172h-123l201 -630l179 630h-121v172h460v-172h-120l-287 -872h-228l-221 673l-219 -673h-227l-302 872h-114z" />
<glyph unicode="x" horiz-adv-x="1274" d="M46 0v173h158l302 355l-292 344h-151v172h522v-172h-98l155 -193l154 193h-96v172h508v-172h-166l-278 -331l313 -368h147v-173h-538v173h117l-178 216l-171 -216h113v-173h-521z" />
<glyph unicode="y" horiz-adv-x="1290" d="M2 872v172h555v-172h-130l243 -657l217 657h-139v172h531v-172h-161l-318 -900q-36 -102 -67 -179.5t-75.5 -131t-113 -80.5t-179.5 -27h-145v193h121q44 0 76.5 4.5t58.5 22.5t46 54.5t40 98.5l38 128h-85l-355 817h-158z" />
<glyph unicode="z" horiz-adv-x="1114" d="M74 0v166l658 713h-429v-188h-180v353h897v-171l-663 -709h476v203h185v-367h-944z" />
<glyph unicode="{" horiz-adv-x="712" d="M38 609v176q64 0 103.5 22.5t61.5 66.5t29.5 106t7.5 141q0 111 5 205.5t35.5 162.5t97 106t189.5 38h101v-163q-69 0 -112 -7.5t-67.5 -29.5t-34 -64t-9.5 -111q0 -136 -5.5 -229t-24 -156.5t-54.5 -104t-97 -72.5q53 -28 87.5 -65.5t55 -92.5t28.5 -131.5t8 -183.5 q0 -101 3 -160t24.5 -90.5t67 -40.5t130.5 -9v-164h-100q-122 0 -189 36t-97.5 102.5t-36 159t-5.5 204.5q0 82 -7 146.5t-28 109.5t-60.5 68.5t-106.5 23.5z" />
<glyph unicode="|" horiz-adv-x="794" d="M299 -309v1818h197v-1818h-197z" />
<glyph unicode="}" horiz-adv-x="712" d="M38 -77q85 0 130.5 8.5t67 39t25 88t3.5 155.5q0 109 7.5 187.5t28 134.5t55 94t88.5 66q-62 32 -97.5 72.5t-54 104t-24 156.5t-5.5 229q0 69 -9 111t-34 64t-68.5 29.5t-112.5 7.5v163h102q122 0 188.5 -37.5t97 -105t36 -160.5t5.5 -203q0 -80 7.5 -143.5t29 -108 t61 -67.5t103.5 -23v-176q-67 0 -106 -23.5t-60 -68.5t-28 -109.5t-7 -146.5q0 -112 -5.5 -204.5t-36 -159t-97.5 -102.5t-189 -36h-101v164z" />
<glyph unicode="~" horiz-adv-x="1380" d="M107 771q65 81 141.5 120.5t170.5 39.5q80 0 155 -24.5t145.5 -53.5t137.5 -53.5t129 -24.5q73 0 136.5 32t123.5 92l33 -176q-63 -74 -138 -115t-163 -41q-52 0 -101 12.5t-97.5 31t-96.5 40.5t-95 40.5t-94.5 30.5t-93.5 12q-75 0 -136.5 -32.5t-128.5 -100.5z" />
<glyph unicode="&#xa1;" horiz-adv-x="665" d="M183 1512v-297.981h300l-24 297.981h-276zM209 398.068v-388.977h250v388.977l-56 610.962h-134z" />
<glyph unicode="&#xa2;" horiz-adv-x="1191" d="M73 520q0 115 38.5 214.5t108.5 173.5t167.5 115.5t213.5 41.5q61 0 119 -17l152 461l97 -29l-157 -471q24 -14 44 -30t36 -33l-1 98h200v-386h-193q-17 64 -50.5 113t-88.5 76l-223 -666q42 -12 95 -12q96 0 180 42t137 126l164 -105q-74 -126 -194 -190.5t-291 -64.5 q-81 0 -153 17l-135 -406l-95 28l135 409q-78 33 -135.5 86t-95 118.5t-56.5 140t-19 150.5zM326 526q0 -102 30.5 -178t89.5 -122l215 647q-8 0 -15.5 1t-14.5 1q-73 0 -130 -25t-95.5 -70.5t-59 -110t-20.5 -143.5z" />
<glyph unicode="&#xa3;" horiz-adv-x="1290" d="M43 208q0 47 18 92.5t52.5 81t84.5 57.5t114 22q56 0 103 -20t95 -61q3 10 3.5 21t0.5 22q0 69 -28 136.5t-69 128.5h-273v163h183q-28 59 -43.5 121t-15.5 136q0 97 31.5 173t90.5 128t142.5 80t188.5 28q101 0 179.5 -29.5t131.5 -85t80.5 -133.5t27.5 -174h-210 q0 49 -10.5 92t-34 74.5t-61.5 49t-95 17.5q-116 0 -179.5 -53.5t-63.5 -155.5q0 -67 27.5 -134t63.5 -134h475v-163h-400q24 -51 36 -98.5t12 -98.5q0 -47 -10.5 -98t-33.5 -108q59 -35 115.5 -64t114.5 -29q49 0 78 13.5t45.5 40t22.5 65t10 89.5h156q0 -102 -13.5 -181 t-48.5 -132.5t-95.5 -81t-154.5 -27.5q-89 0 -166.5 38.5t-157.5 101.5q-47 -64 -107 -102t-134 -38q-71 0 -123.5 19.5t-87 51.5t-51 73.5t-16.5 85.5zM236 212q0 -25 17.5 -46.5t44.5 -21.5q24 0 60 20l18 46l18 51q-21 13 -39.5 19.5t-34.5 6.5q-37 0 -60.5 -21.5 t-23.5 -53.5z" />
<glyph unicode="&#xa4;" horiz-adv-x="1142" d="M143 638l101 101q-44 52 -68.5 115.5t-24.5 136.5q0 143 90 248l-98 99l85 85l105 -106q52 31 110.5 48.5t127.5 17.5t128 -18t110 -50l109 108l84 -85l-102 -102q89 -103 89 -245q0 -73 -24 -135.5t-67 -113.5l104 -104l-84 -83l-111 108q-105 -65 -236 -65 q-69 0 -126.5 16.5t-108.5 47.5l-108 -107zM321 990q0 -52 18 -97.5t50.5 -79.5t78.5 -54.5t103 -20.5q56 0 102.5 20.5t78.5 54.5t49.5 79.5t17.5 96.5q0 50 -17.5 95t-50.5 79.5t-78.5 54t-101.5 19.5q-58 0 -104 -19.5t-78 -54t-50 -79.5t-18 -94z" />
<glyph unicode="&#xa5;" horiz-adv-x="1501" d="M27 1269v149h581v-151h-185l337 -481l316 482h-184v150h566v-151h-192l-345 -502h260v-146h-337v-110h337v-144h-337v-215h202v-150h-595v151h196v214h-341v144h341v110h-341v146h260l-359 504h-180z" />
<glyph unicode="&#xa6;" horiz-adv-x="509" d="M181 -272v671h150v-671h-150zM181 824v670h150v-670h-150z" />
<glyph unicode="&#xa7;" horiz-adv-x="1095" d="M130 760q0 68 36.5 122.5t95.5 84.5q-36 37 -61.5 97t-25.5 144q0 77 29.5 137t83 101.5t126 63t159.5 21.5q89 0 156 -17t112.5 -48t68 -73t22.5 -92q0 -62 -49 -103t-141 -41q0 45 -8 91.5t-28 84.5t-55 63t-88 25q-85 0 -136 -49t-51 -141q0 -48 16 -80.5t47.5 -58.5 t76.5 -48l101 -50q106 -52 182.5 -97.5t125 -92t72 -99t23.5 -117.5q0 -37 -10.5 -72t-28 -66.5t-40.5 -57t-50 -41.5q33 -43 52 -100t19 -116q0 -80 -26 -147t-77 -115t-126.5 -74.5t-176.5 -26.5q-113 0 -188.5 23.5t-120.5 60.5t-63.5 83t-18.5 92q0 78 49.5 118 t129.5 40q0 -66 15.5 -122.5t45 -98t74.5 -64.5t104 -23q97 0 151 53.5t54 141.5q0 42 -12 74t-49 65t-105 72t-180 94q-84 41 -143 83.5t-96.5 88t-55 97t-17.5 110.5zM310 812q0 -42 14 -74t47.5 -62t87.5 -61t135 -71q67 -32 114.5 -59t87.5 -55q11 16 19 38t8 50 q0 33 -11 64.5t-39 62t-75 62.5t-121 68l-127 62q-59 29 -108 63q-15 -17 -23.5 -39.5t-8.5 -48.5z" />
<glyph unicode="&#xa8;" horiz-adv-x="813" d="M70 1267v227h230v-227h-230zM519 1267v227h230v-227h-230z" />
<glyph unicode="&#xa9;" horiz-adv-x="1808" d="M91 745q0 96 22 191t66 180.5t110 158.5t154 127t198.5 84.5t241.5 30.5q132 0 242.5 -30.5t199 -84.5t155 -127t111.5 -158.5t67 -180.5t22 -191t-22 -190.5t-66.5 -180t-111 -158t-155 -126t-199 -83.5t-243.5 -30t-243 30t-198 83.5t-153.5 126t-109.5 158t-66 180 t-22 190.5zM287 742q0 -115 36.5 -225t111 -196t186.5 -138.5t262 -52.5t262.5 52.5t187.5 138.5t112.5 196t37.5 225t-38 227t-113 199.5t-187.5 141.5t-261.5 54q-98 0 -181 -24.5t-149.5 -68t-116.5 -103t-83 -128t-49.5 -145t-16.5 -153.5zM480 755q0 85 29 157.5 t80.5 126.5t123 85t157.5 31q70 0 125 -26.5t87 -60.5l-1 71h148v-283h-142q-10 35 -25.5 63.5t-39 49.5t-56 33.5t-75.5 12.5q-109 0 -167.5 -69.5t-58.5 -186.5q0 -121 58.5 -191.5t167.5 -70.5q71 0 132.5 30.5t99.5 93.5l122 -79q-108 -187 -358 -187 q-103 0 -179.5 34.5t-127.5 90.5t-75.5 128t-24.5 147z" />
<glyph unicode="&#xaa;" horiz-adv-x="856" d="M75 968q0 55 21.5 96.5t58.5 68t87.5 39t109.5 12.5q43 0 88.5 -9t90.5 -26v86q0 65 -42.5 97t-115.5 32q-110 0 -165 -80l-108 60q91 125 289 125q126 0 199.5 -55.5t73.5 -165.5v-365h120v-106h-238v77q-57 -47 -113 -68.5t-119 -21.5q-52 0 -96 16t-75.5 43.5 t-48.5 65t-17 79.5zM203 969q0 -47 34 -77.5t96 -30.5q52 0 104.5 20.5t93.5 56.5v115q-35 15 -79.5 26.5t-88.5 11.5q-33 0 -62 -6t-50.5 -20.5t-34.5 -37.5t-13 -58z" />
<glyph unicode="&#xab;" horiz-adv-x="1396" d="M171 622v123l387 442h158l-255 -504l255 -505h-158zM688 622v123l386 442h157l-253 -504l253 -505h-157z" />
<glyph unicode="&#xac;" horiz-adv-x="1368" d="M69 888v173h1152v-656h-144v483h-1008z" />
<glyph unicode="&#xad;" horiz-adv-x="2099" />
<glyph unicode="&#xae;" horiz-adv-x="1776" d="M95 745q0 175 62.5 317.5t171 243.5t253 156t306.5 55q164 0 308.5 -55t252.5 -156t171.5 -243.5t63.5 -317.5q0 -174 -63.5 -316t-171.5 -242.5t-252.5 -155t-308.5 -54.5q-162 0 -306.5 54.5t-253 155t-171 242.5t-62.5 316zM264 742q0 -143 49.5 -260t134.5 -200 t198 -128t242 -45t243 45t198.5 128t134 200t49.5 260q0 145 -49.5 263t-134 202.5t-198.5 130.5t-243 46t-242 -46t-198 -130t-134.5 -202.5t-49.5 -263.5zM539 378v91h107v590h-107v91h379q59 0 107.5 -11.5t84 -36.5t55 -63.5t19.5 -91.5q0 -77 -41 -127.5t-128 -72.5 l153 -278h109v-91h-204l-187 353h-101v-262h101v-91h-347zM785 827h125q41 0 66.5 10t41.5 27t22.5 37.5t6.5 43.5q0 49 -32.5 81.5t-95.5 32.5h-134v-232z" />
<glyph unicode="&#xaf;" horiz-adv-x="729" d="M161 1336v104h401v-104h-401z" />
<glyph unicode="&#xb0;" horiz-adv-x="803" d="M79 1161q0 60 21.5 117.5t63 100.5t102 69.5t136.5 26.5t136.5 -26.5t101.5 -69.5t63.5 -100.5t22.5 -117.5q0 -61 -21.5 -118t-63.5 -100.5t-101.5 -70t-137.5 -26.5q-77 0 -137 26.5t-101.5 70t-63 100.5t-21.5 118zM198 1162q0 -40 13.5 -77t39.5 -66t64 -46t87 -17 q48 0 86 16.5t64.5 45.5t40 66.5t13.5 77.5q0 38 -13.5 75t-39 66.5t-64 47.5t-87.5 18t-87 -17t-64 -46t-39.5 -66t-13.5 -78z" />
<glyph unicode="&#xb1;" horiz-adv-x="1408" d="M164 0v178h1081v-178h-1081zM164 811v179h449v450h180v-450h452v-179h-452v-451h-180v451h-449z" />
<glyph unicode="&#xb2;" horiz-adv-x="1154" d="M215 429q0 94 25.5 169t66 136t92.5 111t107 95l78 62q42 32 76.5 67.5t57 74.5t22.5 86q0 71 -41 113t-118 42q-103 0 -144.5 -61.5t-42.5 -195.5h-152q0 199 84 294t252 95q91 0 157 -25.5t108.5 -66t62 -93t19.5 -106.5q0 -78 -34.5 -136.5t-87.5 -107t-117.5 -92.5 t-124 -92t-107.5 -105t-68 -133h407v208h132v-339h-710z" />
<glyph unicode="&#xb3;" horiz-adv-x="1177" d="M218 745l158 2q10 -96 59.5 -151.5t148.5 -55.5q52 0 91.5 14t67 38.5t41.5 58.5t14 73q0 56 -19 93t-57 59t-95.5 31t-133.5 9v137q72 0 123.5 8.5t84 28t48 51.5t15.5 79q0 69 -44.5 114.5t-134.5 45.5q-46 0 -78 -12.5t-53 -34.5t-31 -52t-11 -65l-159 10 q3 67 27.5 121t67 92t102.5 58.5t134 20.5q81 0 146.5 -20t111.5 -56.5t70.5 -90t24.5 -122.5q0 -81 -46.5 -146.5t-136.5 -92.5q112 -27 168.5 -94.5t56.5 -167.5q0 -72 -27.5 -131t-78.5 -101t-124.5 -65.5t-165.5 -23.5q-81 0 -147.5 21t-114.5 63t-75 105t-28 149z" />
<glyph unicode="&#xb4;" horiz-adv-x="712" d="M125 1181l153 376h317l-265 -376h-205z" />
<glyph unicode="&#xb5;" horiz-adv-x="1311" d="M32 872v172h398v-768q0 -19 7.5 -38t25.5 -34.5t46.5 -25t69.5 -9.5q75 0 146 41t130 109v553h-174v172h417v-871h181v-173h-419l-5 118q-81 -70 -165.5 -105.5t-172.5 -35.5q-53 0 -96 13v-428h-233v1310h-156z" />
<glyph unicode="&#x3bc;" horiz-adv-x="1311" d="M32 872v172h398v-768q0 -19 7.5 -38t25.5 -34.5t46.5 -25t69.5 -9.5q75 0 146 41t130 109v553h-174v172h417v-871h181v-173h-419l-5 118q-81 -70 -165.5 -105.5t-172.5 -35.5q-53 0 -96 13v-428h-233v1310h-156z" />
<glyph unicode="&#xb6;" horiz-adv-x="1348" d="M62 1016q0 91 30.5 171.5t92 141t153.5 95.5t217 35h700v-169h-170v-1724h-166v1724h-247v-1724h-166v1010q-106 3 -188.5 38t-139.5 93.5t-86.5 137.5t-29.5 171z" />
<glyph unicode="&#xb7;" horiz-adv-x="509" d="M106 549v259h279v-259h-279z" />
<glyph unicode="&#xb8;" horiz-adv-x="722" d="M187 -336q28 -5 58 -5q63 0 104 16t41 59q0 32 -28.5 50.5t-81.5 22.5l48 199h89l-21 -119q68 -11 106 -48.5t38 -98.5q0 -38 -15.5 -71.5t-48 -59t-83 -40t-120.5 -14.5h-17q-12 0 -25 0.5t-25 1.5t-19 3v104z" />
<glyph unicode="&#xb9;" horiz-adv-x="746" d="M128 1368v126h332v-939h143v-127h-465v127h151v813h-161z" />
<glyph unicode="&#xba;" horiz-adv-x="865" d="M84 1149q0 70 26.5 129.5t73.5 102.5t111 68t139 25t139 -25t111 -68t73.5 -102.5t26.5 -129.5t-26.5 -129t-73.5 -103t-111 -68.5t-139 -24.5t-139 24.5t-111 68.5t-73.5 103t-26.5 129zM221 1149q0 -44 16 -82.5t45 -66t68 -43.5t84 -16q44 0 83 16t67.5 43.5t44.5 66 t16 82.5t-16 81.5t-44.5 65t-67.5 43t-83 15.5q-45 0 -84 -15.5t-68 -43t-45 -65t-16 -81.5z" />
<glyph unicode="&#xbb;" horiz-adv-x="1396" d="M178 178l255 505l-255 504h157l388 -442v-123l-388 -444h-157zM695 178l253 505l-253 504h156l388 -442v-123l-388 -444h-156z" />
<glyph unicode="&#xbc;" horiz-adv-x="2153" d="M130 1368v126h332v-939h143v-127h-465v127h151v813h-161zM600 0l706 1540l158 -44l-705 -1540zM1287 298v148l424 618h169v-640h152v-126h-152v-166h116v-132h-417v132h146v166h-438zM1438 424h287v423z" />
<glyph unicode="&#xbd;" horiz-adv-x="2207" d="M128 1368v126h332v-939h143v-127h-465v127h151v813h-161zM600 0l706 1540l158 -44l-705 -1540zM1372 1q0 94 25.5 169t66 136t92.5 111t107 95l78 62q42 32 76.5 67.5t57 74.5t22.5 86q0 71 -41 113t-118 42q-103 0 -144.5 -61.5t-42.5 -195.5h-152q0 199 84 294t252 95 q91 0 157 -25.5t108.5 -66t62 -93t19.5 -106.5q0 -78 -34.5 -136.5t-87.5 -107t-117.5 -92.5t-124 -92t-107.5 -105t-68 -133h407v208h132v-339h-710z" />
<glyph unicode="&#xbe;" horiz-adv-x="2469" d="M218 745l158 2q10 -96 59.5 -151.5t148.5 -55.5q52 0 91.5 14t67 38.5t41.5 58.5t14 73q0 56 -19 93t-57 59t-95.5 31t-133.5 9v137q72 0 123.5 8.5t84 28t48 51.5t15.5 79q0 69 -44.5 114.5t-134.5 45.5q-46 0 -78 -12.5t-53 -34.5t-31 -52t-11 -65l-159 10 q3 67 27.5 121t67 92t102.5 58.5t134 20.5q81 0 146.5 -20t111.5 -56.5t70.5 -90t24.5 -122.5q0 -81 -46.5 -146.5t-136.5 -92.5q112 -27 168.5 -94.5t56.5 -167.5q0 -72 -27.5 -131t-78.5 -101t-124.5 -65.5t-165.5 -23.5q-81 0 -147.5 21t-114.5 63t-75 105t-28 149z M925 0l706 1540l158 -44l-705 -1540zM1575 298v148l424 618h169v-640h152v-126h-152v-166h116v-132h-417v132h146v166h-438zM1726 424h287v423z" />
<glyph unicode="&#xbf;" horiz-adv-x="979" d="M925.007 378.134q0 -118.985 -38.9951 -199.476q-38.9961 -80.4902 -102.988 -129.984t-146.981 -71.9912q-82.9902 -22.4971 -169.979 -22.4971q-91.9883 0 -173.479 27.9961q-81.4902 27.9971 -140.983 78.9902q-59.4922 50.9941 -93.9883 123.485 q-34.4951 72.4912 -34.4951 162.479q0 66.9922 17.9971 115.986q17.998 48.9941 46.4941 84.9893q28.4971 35.9961 62.4932 62.4932q33.9951 26.4961 67.9912 48.4941q37.9951 25.9961 75.4912 55.4932q37.4951 29.4961 67.9912 73.9902q30.4961 44.4951 51.4941 107.487 q20.9971 62.9922 25.9971 156.98h170.979q0 -105.986 -15.998 -181.478t-41.9951 -128.984q-25.9961 -53.4932 -58.4922 -89.9893q-32.4961 -36.4951 -66.9922 -63.4922q-34.4961 -26.9961 -66.9922 -48.9941q-32.4951 -21.9971 -58.4922 -47.9941 q-25.9971 -25.9961 -41.9951 -60.4922t-15.998 -84.4902q0 -51.9932 17.498 -93.9883q17.498 -41.9941 47.4941 -71.4912q29.9961 -29.4961 69.9912 -45.4941t85.9893 -15.998q124.985 0 186.478 67.4912q61.4922 67.4922 61.4922 190.478h212.975zM638.042 1471v-256.969 h-239.971v256.969h239.971z" />
<glyph unicode="&#xc0;" d="M-14 0v173h181l359 1149h-145v172h789v-172h-145l364 -1149h177v-173h-634v173h192l-96 363h-529l-98 -363h196v-173h-611zM551 710h427l-186 612h-50zM542 2010h318l151 -376h-203z" />
<glyph unicode="&#xc1;" d="M-14 0v173h181l359 1149h-145v172h789v-172h-145l364 -1149h177v-173h-634v173h192l-96 363h-529l-98 -363h196v-173h-611zM551 710h427l-186 612h-50zM541 1631l153 376h317l-265 -376h-205z" />
<glyph unicode="&#xc2;" d="M-14 0v173h181l359 1149h-145v172h789v-172h-145l364 -1149h177v-173h-634v173h192l-96 363h-529l-98 -363h196v-173h-611zM551 710h427l-186 612h-50zM434 1630l165 404h348l172 -404h-221l-124 310l-125 -310h-215z" />
<glyph unicode="&#xc3;" d="M-14 0v173h181l359 1149h-145v172h789v-172h-145l364 -1149h177v-173h-634v173h192l-96 363h-529l-98 -363h196v-173h-611zM551 710h427l-186 612h-50zM417 1647q5 67 23.5 116t45.5 80t61.5 46t71.5 15q43 0 86 -13t83.5 -28.5t78 -28.5t71.5 -13q54 0 68 77h131 q-9 -123 -62 -192.5t-144 -69.5q-46 0 -89 13.5t-82 28.5l-76 30q-36 13 -68 13q-31 0 -45.5 -19.5t-20.5 -54.5h-133z" />
<glyph unicode="&#xc4;" d="M-14 0v173h181l359 1149h-145v172h789v-172h-145l364 -1149h177v-173h-634v173h192l-96 363h-529l-98 -363h196v-173h-611zM551 710h427l-186 612h-50zM437 1717v227h230v-227h-230zM886 1717v227h230v-227h-230z" />
<glyph unicode="&#xc5;" d="M-14 0v173h181l359 1149h-145v172h789v-172h-145l364 -1149h177v-173h-634v173h192l-96 363h-529l-98 -363h196v-173h-611zM551 710h427l-186 612h-50zM552 1776q0 41 14.5 77.5t43.5 65t70.5 45t95.5 16.5t95.5 -16.5t70.5 -45t44 -65t15 -77.5q0 -42 -15.5 -80 t-44.5 -67.5t-70.5 -47t-94.5 -17.5t-94.5 17.5t-70 47t-44 67.5t-15.5 80zM649 1773q0 -47 32.5 -84t94.5 -37q61 0 94.5 37t33.5 84q0 48 -33.5 85t-94.5 37q-62 0 -94.5 -37t-32.5 -85z" />
<glyph unicode="&#xc6;" horiz-adv-x="2308" d="M-14 0v173h180l677 1149h-133v172h1494v-428h-204v256h-614v-466h406v143h126v-465h-126v139h-405v-500h615v264h205v-437h-1276v173h190v363h-476l-200 -363h171v-173h-630zM742 710h379v612h-30z" />
<glyph unicode="&#xc7;" horiz-adv-x="1539" d="M88 745q0 171 53 312.5t152.5 243.5t243 159t324.5 57q145 0 260 -48t201 -130v155h202v-471h-191q-37 79 -85.5 135.5t-106.5 93t-123.5 53t-137.5 16.5q-116 0 -208.5 -43t-157.5 -119.5t-99.5 -181t-34.5 -228.5q0 -122 32 -227t95 -182.5t156.5 -122t215.5 -44.5 q81 0 157.5 21t140 66t110 114.5t71.5 165.5l210 -100q-42 -134 -114.5 -222.5t-165.5 -142t-202.5 -75.5t-225.5 -23q-194 1 -338.5 62.5t-241 166t-144.5 243.5t-48 296zM597 -336q28 -5 58 -5q63 0 104 16t41 59q0 32 -28.5 50.5t-81.5 22.5l48 199h89l-21 -119 q68 -11 106 -48.5t38 -98.5q0 -38 -15.5 -71.5t-48 -59t-83 -40t-120.5 -14.5h-17q-12 0 -25 0.5t-25 1.5t-19 3v104z" />
<glyph unicode="&#xc8;" horiz-adv-x="1458" d="M76 0v173h195v1149h-195v172h1278v-428h-204v256h-611v-466h403v143h126v-465h-126v139h-402v-500h613v264h204v-437h-1281zM494 2007h318l151 -376h-203z" />
<glyph unicode="&#xc9;" horiz-adv-x="1458" d="M76 0v173h195v1149h-195v172h1278v-428h-204v256h-611v-466h403v143h126v-465h-126v139h-402v-500h613v264h204v-437h-1281zM494 1631l153 376h317l-265 -376h-205z" />
<glyph unicode="&#xca;" horiz-adv-x="1458" d="M76 0v173h195v1149h-195v172h1278v-428h-204v256h-611v-466h403v143h126v-465h-126v139h-402v-500h613v264h204v-437h-1281zM386 1630l165 404h348l172 -404h-221l-124 310l-125 -310h-215z" />
<glyph unicode="&#xcb;" horiz-adv-x="1458" d="M76 0v173h195v1149h-195v172h1278v-428h-204v256h-611v-466h403v143h126v-465h-126v139h-402v-500h613v264h204v-437h-1281zM391 1717v227h230v-227h-230zM840 1717v227h230v-227h-230z" />
<glyph unicode="&#xcc;" horiz-adv-x="814" d="M82 0v173h190v1149h-190v172h649v-172h-190v-1149h190v-173h-649zM172 2007h318l151 -376h-203z" />
<glyph unicode="&#xcd;" horiz-adv-x="814" d="M82 0v173h190v1149h-190v172h649v-172h-190v-1149h190v-173h-649zM172 1631l153 376h317l-265 -376h-205z" />
<glyph unicode="&#xce;" horiz-adv-x="814" d="M82 0v173h190v1149h-190v172h649v-172h-190v-1149h190v-173h-649zM64 1630l165 404h348l172 -404h-221l-124 310l-125 -310h-215z" />
<glyph unicode="&#xcf;" horiz-adv-x="814" d="M82 0v173h190v1149h-190v172h649v-172h-190v-1149h190v-173h-649zM70 1717v227h230v-227h-230zM519 1717v227h230v-227h-230z" />
<glyph unicode="&#xd0;" horiz-adv-x="1690" d="M75 0v173h213v497h-177v184h177v468h-213v172h739q200 0 347.5 -57t244.5 -156.5t145 -234.5t48 -290q0 -174 -49 -314.5t-147.5 -238t-246 -150.5t-343.5 -53h-738zM557 173h233q144 0 245.5 43.5t164.5 120t92 182.5t29 230q0 123 -29.5 228t-92 182t-162 120 t-237.5 43h-243v-468h223v-184h-223v-497z" />
<glyph unicode="&#xd1;" horiz-adv-x="1729" d="M65 0v173h213v1149h-213v172h536l668 -1139v967h-208v172h629v-172h-219v-1322h-266l-727 1237v-1064h210v-173h-623zM504 1647q5 67 23.5 116t45.5 80t61.5 46t71.5 15q43 0 86 -13t83.5 -28.5t78 -28.5t71.5 -13q54 0 68 77h131q-9 -123 -62 -192.5t-144 -69.5 q-46 0 -89 13.5t-82 28.5l-76 30q-36 13 -68 13q-31 0 -45.5 -19.5t-20.5 -54.5h-133z" />
<glyph unicode="&#xd2;" horiz-adv-x="1769" d="M93 747q0 158 53 298.5t154.5 245t248.5 165.5t335 61q190 0 337.5 -61t249.5 -166.5t155.5 -245.5t53.5 -299q0 -156 -53.5 -295.5t-155 -244.5t-249 -166.5t-336.5 -61.5q-191 0 -338 60.5t-248.5 166t-154 245.5t-52.5 298zM385 744q0 -119 35.5 -223t101.5 -181.5 t157.5 -122t204.5 -44.5q110 0 202 42.5t158.5 119t104 181t37.5 229.5q0 123 -36 229t-102 183.5t-158 121t-204 43.5q-107 0 -199 -42.5t-159 -118.5t-105 -182.5t-38 -234.5zM650 2007h318l151 -376h-203z" />
<glyph unicode="&#xd3;" horiz-adv-x="1769" d="M93 747q0 158 53 298.5t154.5 245t248.5 165.5t335 61q190 0 337.5 -61t249.5 -166.5t155.5 -245.5t53.5 -299q0 -156 -53.5 -295.5t-155 -244.5t-249 -166.5t-336.5 -61.5q-191 0 -338 60.5t-248.5 166t-154 245.5t-52.5 298zM385 744q0 -119 35.5 -223t101.5 -181.5 t157.5 -122t204.5 -44.5q110 0 202 42.5t158.5 119t104 181t37.5 229.5q0 123 -36 229t-102 183.5t-158 121t-204 43.5q-107 0 -199 -42.5t-159 -118.5t-105 -182.5t-38 -234.5zM649 1631l153 376h317l-265 -376h-205z" />
<glyph unicode="&#xd4;" horiz-adv-x="1769" d="M93 747q0 158 53 298.5t154.5 245t248.5 165.5t335 61q190 0 337.5 -61t249.5 -166.5t155.5 -245.5t53.5 -299q0 -156 -53.5 -295.5t-155 -244.5t-249 -166.5t-336.5 -61.5q-191 0 -338 60.5t-248.5 166t-154 245.5t-52.5 298zM385 744q0 -119 35.5 -223t101.5 -181.5 t157.5 -122t204.5 -44.5q110 0 202 42.5t158.5 119t104 181t37.5 229.5q0 123 -36 229t-102 183.5t-158 121t-204 43.5q-107 0 -199 -42.5t-159 -118.5t-105 -182.5t-38 -234.5zM542 1630l165 404h348l172 -404h-221l-124 310l-125 -310h-215z" />
<glyph unicode="&#xd5;" horiz-adv-x="1769" d="M93 747q0 158 53 298.5t154.5 245t248.5 165.5t335 61q190 0 337.5 -61t249.5 -166.5t155.5 -245.5t53.5 -299q0 -156 -53.5 -295.5t-155 -244.5t-249 -166.5t-336.5 -61.5q-191 0 -338 60.5t-248.5 166t-154 245.5t-52.5 298zM385 744q0 -119 35.5 -223t101.5 -181.5 t157.5 -122t204.5 -44.5q110 0 202 42.5t158.5 119t104 181t37.5 229.5q0 123 -36 229t-102 183.5t-158 121t-204 43.5q-107 0 -199 -42.5t-159 -118.5t-105 -182.5t-38 -234.5zM525 1647q5 67 23.5 116t45.5 80t61.5 46t71.5 15q43 0 86 -13t83.5 -28.5t78 -28.5t71.5 -13 q54 0 68 77h131q-9 -123 -62 -192.5t-144 -69.5q-46 0 -89 13.5t-82 28.5l-76 30q-36 13 -68 13q-31 0 -45.5 -19.5t-20.5 -54.5h-133z" />
<glyph unicode="&#xd6;" horiz-adv-x="1769" d="M93 747q0 158 53 298.5t154.5 245t248.5 165.5t335 61q190 0 337.5 -61t249.5 -166.5t155.5 -245.5t53.5 -299q0 -156 -53.5 -295.5t-155 -244.5t-249 -166.5t-336.5 -61.5q-191 0 -338 60.5t-248.5 166t-154 245.5t-52.5 298zM385 744q0 -119 35.5 -223t101.5 -181.5 t157.5 -122t204.5 -44.5q110 0 202 42.5t158.5 119t104 181t37.5 229.5q0 123 -36 229t-102 183.5t-158 121t-204 43.5q-107 0 -199 -42.5t-159 -118.5t-105 -182.5t-38 -234.5zM546 1717v227h230v-227h-230zM995 1717v227h230v-227h-230z" />
<glyph unicode="&#xd7;" horiz-adv-x="1142" d="M159 296l313 307l-307 304l104 104l308 -303l315 308l101 -102l-314 -308l307 -301l-104 -105l-309 302l-312 -306z" />
<glyph unicode="&#xd8;" horiz-adv-x="1769" d="M93 747q0 158 53 298.5t154.5 245t248.5 165.5t335 61q93 0 174 -14.5t154 -42.5l87 146l133 -67l-86 -145q81 -52 143 -121.5t104.5 -153t64.5 -178.5t22 -196q0 -156 -53.5 -295.5t-155 -244.5t-249 -166.5t-336.5 -61.5q-94 0 -176.5 14.5t-155.5 42.5l-95 -158 l-133 67l95 158q-80 52 -141 121.5t-103 152.5t-63 177t-21 195zM385 744q0 -131 42.5 -243t118.5 -190l555 962q-48 23 -101.5 36t-113.5 13q-107 0 -199 -42.5t-159 -118.5t-105 -182.5t-38 -234.5zM667 223q98 -50 217 -50q110 0 202 42.5t158.5 119t104 181t37.5 229.5 q0 137 -43 250.5t-122 191.5z" />
<glyph unicode="&#xd9;" horiz-adv-x="1555" d="M41 1322v172h624v-172h-169v-823q0 -77 16.5 -138t52 -102t92 -63.5t136.5 -22.5q84 0 142.5 21.5t94.5 64t53 105t17 142.5v816h-168v172h582v-172h-189v-805q0 -143 -37.5 -245t-108 -168t-170 -96.5t-223.5 -30.5q-170 0 -278 43t-171 119t-86 179t-23 223v781h-187z M542 2010h318l151 -376h-203z" />
<glyph unicode="&#xda;" horiz-adv-x="1555" d="M542 1634l153 376h317l-265 -376h-205zM41 1322v172h624v-172h-169v-823q0 -77 16.5 -138t52 -102t92 -63.5t136.5 -22.5q84 0 142.5 21.5t94.5 64t53 105t17 142.5v816h-168v172h582v-172h-189v-805q0 -143 -37.5 -245t-108 -168t-170 -96.5t-223.5 -30.5 q-170 0 -278 43t-171 119t-86 179t-23 223v781h-187z" />
<glyph unicode="&#xdb;" horiz-adv-x="1555" d="M435 1633l165 404h348l172 -404h-221l-124 310l-125 -310h-215zM41 1322v172h624v-172h-169v-823q0 -77 16.5 -138t52 -102t92 -63.5t136.5 -22.5q84 0 142.5 21.5t94.5 64t53 105t17 142.5v816h-168v172h582v-172h-189v-805q0 -143 -37.5 -245t-108 -168t-170 -96.5 t-223.5 -30.5q-170 0 -278 43t-171 119t-86 179t-23 223v781h-187z" />
<glyph unicode="&#xdc;" horiz-adv-x="1555" d="M439 1720v227h230v-227h-230zM888 1720v227h230v-227h-230zM41 1322v172h624v-172h-169v-823q0 -77 16.5 -138t52 -102t92 -63.5t136.5 -22.5q84 0 142.5 21.5t94.5 64t53 105t17 142.5v816h-168v172h582v-172h-189v-805q0 -143 -37.5 -245t-108 -168t-170 -96.5 t-223.5 -30.5q-170 0 -278 43t-171 119t-86 179t-23 223v781h-187z" />
<glyph unicode="&#xdd;" horiz-adv-x="1495" d="M-17 1322v172h653v-172h-176l317 -478l299 478h-174v172h607v-172h-195l-428 -646v-503h210v-173h-684v173h205v502l-447 647h-187zM511 1634l153 376h317l-265 -376h-205z" />
<glyph unicode="&#xde;" horiz-adv-x="1382" d="M70 0v173h201v1149h-195v172h464v-189h205q288 0 439 -118t151 -341q0 -131 -45.5 -219.5t-127 -142.5t-194.5 -76t-247 -22h-181v-213h205v-173h-675zM540 567h170q98 0 164.5 19.5t106.5 56t57 88t17 116.5q0 69 -17 121.5t-56 87.5t-101 53t-152 18h-189v-560z" />
<glyph unicode="&#xdf;" horiz-adv-x="1405" d="M53 0v173h188v841q0 119 32 212.5t96 158t160.5 98.5t225.5 34q100 0 183.5 -27.5t144 -76.5t93.5 -117t33 -151q0 -108 -51 -187.5t-163 -123.5q170 -39 262 -137t92 -244q0 -99 -32 -182t-102.5 -143t-183 -94t-273.5 -34v173q67 0 127 14.5t104 47t70 86t26 132.5 q0 56 -19 105.5t-63.5 85.5t-116 56.5t-175.5 20.5v172q68 0 115 19.5t77.5 53t44 76.5t13.5 90q0 87 -55 141t-151 54q-58 0 -104.5 -16t-79 -52t-50.5 -95t-18 -146v-845h143v-173h-593z" />
<glyph unicode="&#xe0;" horiz-adv-x="1201" d="M77 287q0 92 34.5 156t96 104t144.5 57.5t182 17.5q59 0 116 -6.5t120 -18.5v105q0 51 -17 88t-47.5 61t-71.5 35.5t-89 11.5q-101 0 -169 -29.5t-125 -86.5l-124 138q73 73 184 109t256 36q124 0 209 -27t137.5 -75t75 -113.5t22.5 -143.5v-533h181v-173h-400l-11 108 q-48 -37 -91 -62t-84 -40.5t-83.5 -22t-88.5 -6.5q-81 0 -147.5 25t-112.5 68t-71.5 99t-25.5 118zM308 294q0 -33 12 -61.5t35 -50t56 -33.5t75 -12q74 0 147.5 27t136.5 78v211q-47 3 -104 12t-117 9q-48 0 -92 -8t-77 -28.5t-52.5 -55t-19.5 -88.5zM365 1557h318 l151 -376h-203z" />
<glyph unicode="&#xe1;" horiz-adv-x="1201" d="M77 287q0 92 34.5 156t96 104t144.5 57.5t182 17.5q59 0 116 -6.5t120 -18.5v105q0 51 -17 88t-47.5 61t-71.5 35.5t-89 11.5q-101 0 -169 -29.5t-125 -86.5l-124 138q73 73 184 109t256 36q124 0 209 -27t137.5 -75t75 -113.5t22.5 -143.5v-533h181v-173h-400l-11 108 q-48 -37 -91 -62t-84 -40.5t-83.5 -22t-88.5 -6.5q-81 0 -147.5 25t-112.5 68t-71.5 99t-25.5 118zM308 294q0 -33 12 -61.5t35 -50t56 -33.5t75 -12q74 0 147.5 27t136.5 78v211q-47 3 -104 12t-117 9q-48 0 -92 -8t-77 -28.5t-52.5 -55t-19.5 -88.5zM365 1181l153 376h317 l-265 -376h-205z" />
<glyph unicode="&#xe2;" horiz-adv-x="1201" d="M77 287q0 92 34.5 156t96 104t144.5 57.5t182 17.5q59 0 116 -6.5t120 -18.5v105q0 51 -17 88t-47.5 61t-71.5 35.5t-89 11.5q-101 0 -169 -29.5t-125 -86.5l-124 138q73 73 184 109t256 36q124 0 209 -27t137.5 -75t75 -113.5t22.5 -143.5v-533h181v-173h-400l-11 108 q-48 -37 -91 -62t-84 -40.5t-83.5 -22t-88.5 -6.5q-81 0 -147.5 25t-112.5 68t-71.5 99t-25.5 118zM308 294q0 -33 12 -61.5t35 -50t56 -33.5t75 -12q74 0 147.5 27t136.5 78v211q-47 3 -104 12t-117 9q-48 0 -92 -8t-77 -28.5t-52.5 -55t-19.5 -88.5zM258 1180l165 404h348 l172 -404h-221l-124 310l-125 -310h-215z" />
<glyph unicode="&#xe3;" horiz-adv-x="1201" d="M77 287q0 92 34.5 156t96 104t144.5 57.5t182 17.5q59 0 116 -6.5t120 -18.5v105q0 51 -17 88t-47.5 61t-71.5 35.5t-89 11.5q-101 0 -169 -29.5t-125 -86.5l-124 138q73 73 184 109t256 36q124 0 209 -27t137.5 -75t75 -113.5t22.5 -143.5v-533h181v-173h-400l-11 108 q-48 -37 -91 -62t-84 -40.5t-83.5 -22t-88.5 -6.5q-81 0 -147.5 25t-112.5 68t-71.5 99t-25.5 118zM308 294q0 -33 12 -61.5t35 -50t56 -33.5t75 -12q74 0 147.5 27t136.5 78v211q-47 3 -104 12t-117 9q-48 0 -92 -8t-77 -28.5t-52.5 -55t-19.5 -88.5zM241 1197 q5 67 23.5 116t45.5 80t61.5 46t71.5 15q43 0 86 -13t83.5 -28.5t78 -28.5t71.5 -13q54 0 68 77h131q-9 -123 -62 -192.5t-144 -69.5q-46 0 -89 13.5t-82 28.5l-76 30q-36 13 -68 13q-31 0 -45.5 -19.5t-20.5 -54.5h-133z" />
<glyph unicode="&#xe4;" horiz-adv-x="1201" d="M77 287q0 92 34.5 156t96 104t144.5 57.5t182 17.5q59 0 116 -6.5t120 -18.5v105q0 51 -17 88t-47.5 61t-71.5 35.5t-89 11.5q-101 0 -169 -29.5t-125 -86.5l-124 138q73 73 184 109t256 36q124 0 209 -27t137.5 -75t75 -113.5t22.5 -143.5v-533h181v-173h-400l-11 108 q-48 -37 -91 -62t-84 -40.5t-83.5 -22t-88.5 -6.5q-81 0 -147.5 25t-112.5 68t-71.5 99t-25.5 118zM308 294q0 -33 12 -61.5t35 -50t56 -33.5t75 -12q74 0 147.5 27t136.5 78v211q-47 3 -104 12t-117 9q-48 0 -92 -8t-77 -28.5t-52.5 -55t-19.5 -88.5zM262 1267v227h230 v-227h-230zM711 1267v227h230v-227h-230z" />
<glyph unicode="&#xe5;" horiz-adv-x="1201" d="M77 287q0 92 34.5 156t96 104t144.5 57.5t182 17.5q59 0 116 -6.5t120 -18.5v105q0 51 -17 88t-47.5 61t-71.5 35.5t-89 11.5q-101 0 -169 -29.5t-125 -86.5l-124 138q73 73 184 109t256 36q124 0 209 -27t137.5 -75t75 -113.5t22.5 -143.5v-533h181v-173h-400l-11 108 q-48 -37 -91 -62t-84 -40.5t-83.5 -22t-88.5 -6.5q-81 0 -147.5 25t-112.5 68t-71.5 99t-25.5 118zM308 294q0 -33 12 -61.5t35 -50t56 -33.5t75 -12q74 0 147.5 27t136.5 78v211q-47 3 -104 12t-117 9q-48 0 -92 -8t-77 -28.5t-52.5 -55t-19.5 -88.5zM375 1326 q0 41 14.5 77.5t43.5 65t70.5 45t95.5 16.5t95.5 -16.5t70.5 -45t44 -65t15 -77.5q0 -42 -15.5 -80t-44.5 -67.5t-70.5 -47t-94.5 -17.5t-94.5 17.5t-70 47t-44 67.5t-15.5 80zM472 1323q0 -47 32.5 -84t94.5 -37q61 0 94.5 37t33.5 84q0 48 -33.5 85t-94.5 37 q-62 0 -94.5 -37t-32.5 -85z" />
<glyph unicode="&#xe6;" horiz-adv-x="1896" d="M77 287q0 92 34.5 156t96 104t144.5 57.5t182 17.5q59 0 116 -6.5t120 -18.5v105q0 51 -17 88t-47.5 61t-71.5 35.5t-89 11.5q-101 0 -169 -29.5t-125 -86.5l-124 138q73 73 184 109t256 36q73 0 129 -9t100 -30t80.5 -57.5t68.5 -89.5q76 100 173 143t213 43 q120 0 211 -45.5t152.5 -126t93 -188.5t31.5 -234h-794q5 -66 26.5 -122.5t60 -98t95.5 -65t134 -23.5q80 0 161 34.5t140 99.5l133 -127q-67 -92 -180.5 -142t-264.5 -50q-132 0 -236 41.5t-178 115.5q-96 -74 -216.5 -115.5t-265.5 -41.5q-81 0 -147.5 25t-112.5 68 t-71.5 99t-25.5 118zM308 294q0 -33 12 -61.5t35 -50t56 -33.5t75 -12q49 0 96.5 11t90.5 28.5t82.5 40t71.5 45.5q-42 81 -53 184l-4 7q-47 3 -104 12t-117 9q-48 0 -92 -8t-77 -28.5t-52.5 -55t-19.5 -88.5zM1028 616h556q0 58 -19.5 107t-55 85.5t-85 57.5t-107.5 21 q-64 0 -113.5 -19t-85.5 -55t-58.5 -85.5t-31.5 -111.5z" />
<glyph unicode="&#xe7;" horiz-adv-x="1191" d="M73 520q0 115 38.5 214.5t108.5 173.5t167.5 115.5t213.5 41.5q48 0 91.5 -9.5t80 -26.5t67 -38.5t52.5 -44.5l-1 98h200v-386h-193q-12 47 -33.5 87t-54.5 69t-77 45t-102 16q-73 0 -130 -25t-95.5 -70.5t-59 -110t-20.5 -143.5q0 -81 20.5 -147.5t59 -113t95.5 -71.5 t130 -25q96 0 180 42t137 126l164 -105q-74 -126 -194 -190.5t-291 -64.5q-140 0 -244.5 46.5t-173.5 123t-102.5 174t-33.5 199.5zM419 -336q28 -5 58 -5q63 0 104 16t41 59q0 32 -28.5 50.5t-81.5 22.5l48 199h89l-21 -119q68 -11 106 -48.5t38 -98.5q0 -38 -15.5 -71.5 t-48 -59t-83 -40t-120.5 -14.5h-17q-12 0 -25 0.5t-25 1.5t-19 3v104z" />
<glyph unicode="&#xe8;" horiz-adv-x="1250" d="M75 517q0 119 43 220t120 174t181.5 113.5t228.5 40.5q131 0 229 -45.5t164 -126t99 -188.5t33 -234h-843q5 -66 27.5 -122.5t65 -98t104.5 -65t143 -23.5q88 0 174.5 34.5t151.5 99.5l133 -127q-70 -92 -189.5 -142t-280.5 -50q-135 0 -243 41t-184 113t-116.5 171 t-40.5 215zM333 616h605q-8 59 -31 108.5t-59 85.5t-86.5 56.5t-114.5 20.5q-139 0 -216 -74t-98 -197zM391 1557h318l151 -376h-203z" />
<glyph unicode="&#xe9;" horiz-adv-x="1250" d="M389 1181l153 376h317l-265 -376h-205zM75 517q0 119 43 220t120 174t181.5 113.5t228.5 40.5q131 0 229 -45.5t164 -126t99 -188.5t33 -234h-843q5 -66 27.5 -122.5t65 -98t104.5 -65t143 -23.5q88 0 174.5 34.5t151.5 99.5l133 -127q-70 -92 -189.5 -142t-280.5 -50 q-135 0 -243 41t-184 113t-116.5 171t-40.5 215zM333 616h605q-8 59 -31 108.5t-59 85.5t-86.5 56.5t-114.5 20.5q-139 0 -216 -74t-98 -197z" />
<glyph unicode="&#xea;" horiz-adv-x="1250" d="M283 1180l165 404h348l172 -404h-221l-124 310l-125 -310h-215zM75 517q0 119 43 220t120 174t181.5 113.5t228.5 40.5q131 0 229 -45.5t164 -126t99 -188.5t33 -234h-843q5 -66 27.5 -122.5t65 -98t104.5 -65t143 -23.5q88 0 174.5 34.5t151.5 99.5l133 -127 q-70 -92 -189.5 -142t-280.5 -50q-135 0 -243 41t-184 113t-116.5 171t-40.5 215zM333 616h605q-8 59 -31 108.5t-59 85.5t-86.5 56.5t-114.5 20.5q-139 0 -216 -74t-98 -197z" />
<glyph unicode="&#xeb;" horiz-adv-x="1250" d="M288 1267v227h230v-227h-230zM737 1267v227h230v-227h-230zM75 517q0 119 43 220t120 174t181.5 113.5t228.5 40.5q131 0 229 -45.5t164 -126t99 -188.5t33 -234h-843q5 -66 27.5 -122.5t65 -98t104.5 -65t143 -23.5q88 0 174.5 34.5t151.5 99.5l133 -127 q-70 -92 -189.5 -142t-280.5 -50q-135 0 -243 41t-184 113t-116.5 171t-40.5 215zM333 616h605q-8 59 -31 108.5t-59 85.5t-86.5 56.5t-114.5 20.5q-139 0 -216 -74t-98 -197z" />
<glyph unicode="&#xec;" horiz-adv-x="626" d="M82 0v172h169v700h-169v172h410v-872h169v-172h-579zM11 1567h318l151 -376h-203z" />
<glyph unicode="&#xed;" horiz-adv-x="626" d="M113 1191l153 376h317l-265 -376h-205zM82 0v172h169v700h-169v172h410v-872h169v-172h-579z" />
<glyph unicode="&#xee;" horiz-adv-x="626" d="M-48 1191l165 404h348l172 -404h-221l-124 310l-125 -310h-215zM82 0v172h169v700h-169v172h410v-872h169v-172h-579z" />
<glyph unicode="&#xef;" horiz-adv-x="626" d="M-42 1263v227h230v-227h-230zM407 1263v227h230v-227h-230zM82 0v172h169v700h-169v172h410v-872h169v-172h-579z" />
<glyph unicode="&#xf0;" horiz-adv-x="1237" d="M106 488q0 100 32 183.5t90.5 143.5t139 93t177.5 33q102 0 191 -31.5t155 -94.5q0 164 -36 277l-185 -49l-43 148l155 40q-42 51 -97 75t-122 24q-118 0 -264 -75l-81 152q27 21 67 40.5t85.5 35t94.5 25t96 9.5q149 0 257.5 -58.5t179.5 -169.5l194 53l43 -148 l-170 -45q63 -174 63 -416q0 -373 -135.5 -564.5t-407.5 -191.5q-113 0 -201.5 36.5t-150.5 103.5t-94.5 161.5t-32.5 209.5zM333 467q0 -66 17 -121.5t49.5 -96t81 -63t112.5 -22.5q75 0 127 30t86.5 87.5t53 141t26.5 190.5q-31 33 -70 58t-79 41t-78.5 24t-70.5 8 q-60 0 -107.5 -20t-80 -56.5t-50 -87.5t-17.5 -113z" />
<glyph unicode="&#xf1;" horiz-adv-x="1359" d="M75 872v172h423v-28q0 -18 0.5 -38.5t1.5 -38t1 -23.5q92 74 176 111.5t174 37.5q67 0 124 -22t98 -65t65 -107.5t24 -149.5v-40v-69q-1 -42 -1 -90v-96v-253h176v-173h-531v173h115v485q0 106 -30 161.5t-106 55.5q-79 0 -151 -41.5t-133 -104.5v-556h148v-173h-569v173 h177v699h-182zM320 1197q5 67 23.5 116t45.5 80t61.5 46t71.5 15q43 0 86 -13t83.5 -28.5t78 -28.5t71.5 -13q54 0 68 77h131q-9 -123 -62 -192.5t-144 -69.5q-46 0 -89 13.5t-82 28.5l-76 30q-36 13 -68 13q-31 0 -45.5 -19.5t-20.5 -54.5h-133z" />
<glyph unicode="&#xf2;" horiz-adv-x="1265" d="M77 522q0 119 41.5 219t115.5 172t176 112t223 40q125 0 227 -40.5t175 -113t113.5 -172t40.5 -217.5q0 -117 -40 -217t-113 -172.5t-175.5 -114t-229.5 -41.5q-124 0 -226 41t-175 113.5t-113 172t-40 218.5zM330 520q0 -77 20.5 -142.5t60 -111.5t95.5 -71.5t126 -25.5 t126 25.5t95.5 72.5t60.5 111.5t21 143.5q0 77 -21 142t-60.5 112t-95.5 73t-127 26q-70 0 -126 -26t-95 -73t-59.5 -112t-20.5 -144zM398 1557h318l151 -376h-203z" />
<glyph unicode="&#xf3;" horiz-adv-x="1265" d="M397 1181l153 376h317l-265 -376h-205zM77 522q0 119 41.5 219t115.5 172t176 112t223 40q125 0 227 -40.5t175 -113t113.5 -172t40.5 -217.5q0 -117 -40 -217t-113 -172.5t-175.5 -114t-229.5 -41.5q-124 0 -226 41t-175 113.5t-113 172t-40 218.5zM330 520 q0 -77 20.5 -142.5t60 -111.5t95.5 -71.5t126 -25.5t126 25.5t95.5 72.5t60.5 111.5t21 143.5q0 77 -21 142t-60.5 112t-95.5 73t-127 26q-70 0 -126 -26t-95 -73t-59.5 -112t-20.5 -144z" />
<glyph unicode="&#xf4;" horiz-adv-x="1265" d="M289 1180l165 404h348l172 -404h-221l-124 310l-125 -310h-215zM77 522q0 119 41.5 219t115.5 172t176 112t223 40q125 0 227 -40.5t175 -113t113.5 -172t40.5 -217.5q0 -117 -40 -217t-113 -172.5t-175.5 -114t-229.5 -41.5q-124 0 -226 41t-175 113.5t-113 172 t-40 218.5zM330 520q0 -77 20.5 -142.5t60 -111.5t95.5 -71.5t126 -25.5t126 25.5t95.5 72.5t60.5 111.5t21 143.5q0 77 -21 142t-60.5 112t-95.5 73t-127 26q-70 0 -126 -26t-95 -73t-59.5 -112t-20.5 -144z" />
<glyph unicode="&#xf5;" horiz-adv-x="1265" d="M77 522q0 119 41.5 219t115.5 172t176 112t223 40q125 0 227 -40.5t175 -113t113.5 -172t40.5 -217.5q0 -117 -40 -217t-113 -172.5t-175.5 -114t-229.5 -41.5q-124 0 -226 41t-175 113.5t-113 172t-40 218.5zM330 520q0 -77 20.5 -142.5t60 -111.5t95.5 -71.5t126 -25.5 t126 25.5t95.5 72.5t60.5 111.5t21 143.5q0 77 -21 142t-60.5 112t-95.5 73t-127 26q-70 0 -126 -26t-95 -73t-59.5 -112t-20.5 -144zM273 1197q5 67 23.5 116t45.5 80t61.5 46t71.5 15q43 0 86 -13t83.5 -28.5t78 -28.5t71.5 -13q54 0 68 77h131q-9 -123 -62 -192.5 t-144 -69.5q-46 0 -89 13.5t-82 28.5l-76 30q-36 13 -68 13q-31 0 -45.5 -19.5t-20.5 -54.5h-133z" />
<glyph unicode="&#xf6;" horiz-adv-x="1265" d="M77 522q0 119 41.5 219t115.5 172t176 112t223 40q125 0 227 -40.5t175 -113t113.5 -172t40.5 -217.5q0 -117 -40 -217t-113 -172.5t-175.5 -114t-229.5 -41.5q-124 0 -226 41t-175 113.5t-113 172t-40 218.5zM330 520q0 -77 20.5 -142.5t60 -111.5t95.5 -71.5t126 -25.5 t126 25.5t95.5 72.5t60.5 111.5t21 143.5q0 77 -21 142t-60.5 112t-95.5 73t-127 26q-70 0 -126 -26t-95 -73t-59.5 -112t-20.5 -144zM294 1267v227h230v-227h-230zM743 1267v227h230v-227h-230z" />
<glyph unicode="&#xf7;" horiz-adv-x="1431" d="M194 609v145h1037v-145h-1037zM622 300q0 10 16 19t37.5 16t44 10.5t33.5 3.5t21 -17.5t17 -41t11.5 -46.5t4.5 -34t-16 -19.5t-38 -15t-43.5 -10.5t-33.5 -4t-21.5 18t-17 41.5t-11.5 46t-4 33.5zM622 1150q0 11 16 20.5t37.5 16t44 10t33.5 3.5t21 -17.5t17 -40.5 t11.5 -45.5t4.5 -33.5t-16 -20t-38 -15.5t-43.5 -10t-33.5 -3.5t-21.5 17t-17 40.5t-11.5 46t-4 32.5z" />
<glyph unicode="&#xf8;" horiz-adv-x="1189" d="M71 494q0 107 37 201.5t105.5 165t165.5 112t218 41.5q105 0 187 -31l79 156l116 -53l-81 -160q106 -70 164.5 -182t58.5 -250q0 -107 -37 -201t-106 -164.5t-166 -112t-218 -41.5q-47 0 -90 6.5t-82 17.5l-79 -154l-115 53l77 152q-112 71 -173 187.5t-61 256.5z M267 494q0 -89 30 -163.5t89 -123.5l320 626q-54 18 -112 18q-76 0 -136.5 -27.5t-103 -75.5t-65 -113.5t-22.5 -140.5zM499 148q42 -11 95 -11q76 0 137 27t104 75t66 113.5t23 141.5q0 85 -28.5 154.5t-80.5 117.5z" />
<glyph unicode="&#xf9;" horiz-adv-x="1337" d="M32 872v172h398v-685q0 -93 33 -141.5t116 -48.5q75 0 146 41t130 109v553h-174v172h417v-871h181v-173h-419l-5 118q-81 -70 -165.5 -105.5t-172.5 -35.5q-85 0 -147 24.5t-103 70t-60 111t-19 148.5v541h-156zM434 1557h318l151 -376h-203z" />
<glyph unicode="&#xfa;" horiz-adv-x="1337" d="M32 872v172h398v-685q0 -93 33 -141.5t116 -48.5q75 0 146 41t130 109v553h-174v172h417v-871h181v-173h-419l-5 118q-81 -70 -165.5 -105.5t-172.5 -35.5q-85 0 -147 24.5t-103 70t-60 111t-19 148.5v541h-156zM433 1181l153 376h317l-265 -376h-205z" />
<glyph unicode="&#xfb;" horiz-adv-x="1337" d="M32 872v172h398v-685q0 -93 33 -141.5t116 -48.5q75 0 146 41t130 109v553h-174v172h417v-871h181v-173h-419l-5 118q-81 -70 -165.5 -105.5t-172.5 -35.5q-85 0 -147 24.5t-103 70t-60 111t-19 148.5v541h-156zM326 1180l165 404h348l172 -404h-221l-124 310l-125 -310 h-215z" />
<glyph unicode="&#xfc;" horiz-adv-x="1337" d="M32 872v172h398v-685q0 -93 33 -141.5t116 -48.5q75 0 146 41t130 109v553h-174v172h417v-871h181v-173h-419l-5 118q-81 -70 -165.5 -105.5t-172.5 -35.5q-85 0 -147 24.5t-103 70t-60 111t-19 148.5v541h-156zM330 1267v227h230v-227h-230zM779 1267v227h230v-227h-230 z" />
<glyph unicode="&#xfd;" horiz-adv-x="1290" d="M2 872v172h555v-172h-130l243 -657l217 657h-139v172h531v-172h-161l-318 -900q-36 -102 -67 -179.5t-75.5 -131t-113 -80.5t-179.5 -27h-145v193h121q44 0 76.5 4.5t58.5 22.5t46 54.5t40 98.5l38 128h-85l-355 817h-158zM409 1181l153 376h317l-265 -376h-205z" />
<glyph unicode="&#xfe;" horiz-adv-x="1027" d="M-123 1322v172h424v-572q80 74 164.5 108.5t193.5 34.5q113 0 205 -41t156.5 -112.5t99.5 -169t35 -209.5q0 -127 -38 -230t-105 -175.5t-158 -111.5t-196 -39q-52 0 -102 9.5t-97 28.5t-87.5 47.5t-70.5 65.5v-534h-419v177h176v1551h-181zM301 311l37 -35 q25 -24 62 -48t85.5 -41.5t104.5 -17.5q74 0 132 25t97.5 71t60 110t20.5 140q0 78 -20.5 143t-60.5 113t-98 75t-132 27q-58 0 -106.5 -19t-85.5 -44t-61.5 -50.5t-34.5 -37.5v-411z" />
<glyph unicode="&#xff;" horiz-adv-x="1290" d="M2 872v172h555v-172h-130l243 -657l217 657h-139v172h531v-172h-161l-318 -900q-36 -102 -67 -179.5t-75.5 -131t-113 -80.5t-179.5 -27h-145v193h121q44 0 76.5 4.5t58.5 22.5t46 54.5t40 98.5l38 128h-85l-355 817h-158zM306 1267v227h230v-227h-230zM755 1267v227h230 v-227h-230z" />
<glyph unicode="&#x131;" horiz-adv-x="702" d="M82 0v172h169v700h-169v172h410v-872h169v-172h-579z" />
<glyph unicode="&#x152;" horiz-adv-x="2516" d="M93 747q0 158 52.5 298.5t153 245t246 165.5t331.5 61q141 0 254.5 -35.5t197.5 -98.5v111h1083v-428h-204v256h-610v-466h403v143h124v-465h-125v139h-402v-500h612v264h205v-437h-1086v112q-84 -64 -197 -99.5t-254 -35.5q-188 0 -334 60.5t-246 166t-152 245.5 t-52 298zM386 744q0 -129 38 -235t106.5 -180t162.5 -115t205 -41q127 0 236.5 38.5t193.5 111.5v853q-87 71 -195 108.5t-238 37.5q-107 0 -199.5 -38t-161.5 -112t-108.5 -181.5t-39.5 -246.5z" />
<glyph unicode="&#x153;" horiz-adv-x="2109" d="M77 522q0 119 41.5 219t115.5 172t176 112t223 40q139 0 249.5 -56t183.5 -153q78 97 190.5 153t250.5 56q130 0 228.5 -45.5t164.5 -126t99 -188.5t33 -234h-844q5 -66 28 -122.5t65 -98t104.5 -65t143.5 -23.5q87 0 174 34.5t152 99.5l133 -127q-70 -92 -189.5 -142 t-280.5 -50q-149 0 -264 55t-191 151q-74 -96 -183 -151t-249 -55q-124 0 -226 41t-175 113.5t-113 172t-40 218.5zM330 520q0 -77 20.5 -142.5t60 -111.5t95.5 -71.5t126 -25.5t126 25.5t95.5 72.5t60.5 111.5t21 143.5q0 77 -21 142t-60.5 112t-95.5 73t-127 26 q-70 0 -126 -26t-95 -73t-59.5 -112t-20.5 -144zM1192 616h605q-9 59 -31.5 108.5t-59 85.5t-87 56.5t-113.5 20.5q-139 0 -216 -74t-98 -197z" />
<glyph unicode="&#x178;" horiz-adv-x="1495" d="M-17 1322v172h653v-172h-176l317 -478l299 478h-174v172h607v-172h-195l-428 -646v-503h210v-173h-684v173h205v502l-447 647h-187zM409 1717v227h230v-227h-230zM858 1717v227h230v-227h-230z" />
<glyph unicode="&#x2c6;" horiz-adv-x="729" d="M22 1180l165 404h348l172 -404h-221l-124 310l-125 -310h-215z" />
<glyph unicode="&#x2da;" horiz-adv-x="694" d="M122 1326q0 41 14.5 77.5t43.5 65t70.5 45t95.5 16.5t95.5 -16.5t70.5 -45t44 -65t15 -77.5q0 -42 -15.5 -80t-44.5 -67.5t-70.5 -47t-94.5 -17.5t-94.5 17.5t-70 47t-44 67.5t-15.5 80zM219 1323q0 -47 32.5 -84t94.5 -37q61 0 94.5 37t33.5 84q0 48 -33.5 85t-94.5 37 q-62 0 -94.5 -37t-32.5 -85z" />
<glyph unicode="&#x2dc;" horiz-adv-x="722" d="M1 1197q5 67 23.5 116t45.5 80t61.5 46t71.5 15q43 0 86 -13t83.5 -28.5t78 -28.5t71.5 -13q54 0 68 77h131q-9 -123 -62 -192.5t-144 -69.5q-46 0 -89 13.5t-82 28.5l-76 30q-36 13 -68 13q-31 0 -45.5 -19.5t-20.5 -54.5h-133z" />
<glyph unicode="&#x2013;" horiz-adv-x="1231" d="M79 237v153h1074v-153h-1074z" />
<glyph unicode="&#x2014;" horiz-adv-x="2242" d="M79 237v153h2085v-153h-2085z" />
<glyph unicode="&#x2018;" horiz-adv-x="469" d="M106 968v262q0 68 13 121.5t43 89.5t78.5 56t119.5 20v-118q-32 -8 -54.5 -19t-36.5 -30t-21 -47.5t-7 -68.5h114v-266h-249z" />
<glyph unicode="&#x2019;" horiz-adv-x="447" d="M105 945v119q33 6 55 17t36 31t21 48t8 70h-117v264h250v-260q0 -69 -13 -122t-42.5 -90t-78 -56.5t-119.5 -20.5z" />
<glyph unicode="&#x201a;" horiz-adv-x="478" d="M105 -181q33 6 55 17t36 31t21 48t8 70h-117v265h250v-261q0 -69 -13 -122t-42.5 -90t-78 -56.5t-119.5 -20.5v119z" />
<glyph unicode="&#x201c;" horiz-adv-x="849" d="M106 968v262q0 68 13 121.5t43 89.5t78.5 56t119.5 20v-118q-32 -8 -54.5 -19t-36.5 -30t-21 -47.5t-7 -68.5h114v-266h-249zM482 968v262q0 68 13 121.5t43 89.5t78.5 56t120.5 20v-118q-32 -8 -55 -19t-37 -30t-21 -47.5t-7 -68.5h114v-266h-249z" />
<glyph unicode="&#x201d;" horiz-adv-x="832" d="M105 945v119q33 6 55 17t36 31t21 48t8 70h-117v264h250v-260q0 -69 -13 -122t-42.5 -90t-78 -56.5t-119.5 -20.5zM472 945v119q34 6 56 17t36 31t21 48t8 70h-117v264h250v-260q0 -69 -13 -122t-42.5 -90t-78 -56.5t-120.5 -20.5z" />
<glyph unicode="&#x201e;" horiz-adv-x="965" d="M148 -181q33 6 55 17t36 31t20.5 48t7.5 70h-116v265h250v-261q0 -69 -13 -122t-42.5 -90t-78 -56.5t-119.5 -20.5v119zM590 -181q34 6 56 17t36 31t20 48t8 70h-116v265h250v-261q0 -69 -13 -122t-42.5 -90t-78 -56.5t-120.5 -20.5v119z" />
<glyph unicode="&#x2022;" horiz-adv-x="687" d="M98 691q0 49 19.5 93t52.5 75.5t78 49.5t96 18q52 0 97 -18t78 -49.5t53 -75.5t20 -93t-20 -92.5t-53 -75.5t-78 -51t-97 -19q-51 0 -96 19t-78 51t-52.5 75.5t-19.5 92.5z" />
<glyph unicode="&#x2026;" horiz-adv-x="1846" d="M148 7q0 23 0.5 64t1.5 85t2.5 84t3.5 60q25 0 67.5 -0.5t88 -2t86.5 -2.5t63 -2q0 -22 -0.5 -64t-2.5 -86.5t-3.5 -84.5t-3.5 -59q-24 0 -66.5 0.5t-87.5 1.5t-86 2.5t-63 3.5zM763 7q0 23 0.5 64t1.5 85t2.5 84t3.5 60q25 0 67.5 -0.5t88 -2t86.5 -2.5t63 -2 q0 -22 -0.5 -64t-1.5 -86.5t-3 -84.5t-5 -59q-24 0 -66.5 0.5t-87.5 1.5t-86 2.5t-63 3.5zM1378 7q0 23 0.5 64t1.5 85t2.5 84t3.5 60q26 0 68.5 -0.5t87.5 -2t86 -2.5t63 -2q0 -22 -0.5 -64t-1.5 -86.5t-3 -84.5l-3 -59q-26 0 -68.5 0.5t-87.5 1.5t-86 2.5t-63 3.5z" />
<glyph unicode="&#x2039;" horiz-adv-x="889" d="M164 615v130l385 439h177l-255 -504l255 -504h-177z" />
<glyph unicode="&#x203a;" horiz-adv-x="889" d="M164 176l254 504l-254 504h175l387 -439v-130l-387 -439h-175z" />
<glyph unicode="&#x2074;" horiz-adv-x="819" d="M36 298v148l424 618h169v-640h152v-126h-152v-166h116v-132h-417v132h146v166h-438zM187 424h287v423z" />
<glyph unicode="&#x20ac;" horiz-adv-x="1579" d="M44 524v151h186q-1 14 -1.5 35t-0.5 35q0 25 0.5 47.5t2.5 47.5h-187v151h211q27 116 81.5 212.5t134 166t182 108.5t225.5 39q65 0 122.5 -13t106.5 -36t90.5 -53.5t75.5 -65.5v145h201v-471h-191q-60 160 -156 229.5t-213 69.5q-68 0 -125.5 -24t-104 -67t-81 -104 t-53.5 -136h354v-151h-381q-4 -44 -4 -91v-37q0 -23 3 -37h382v-151h-358q19 -78 51.5 -142.5t78 -110.5t105 -72t132.5 -26q67 0 130.5 21t116 66t91 114.5t56.5 165.5l212 -100q-37 -134 -100.5 -222.5t-144.5 -142t-176.5 -75.5t-195.5 -23q-137 1 -246 42t-190 113.5 t-134.5 173t-79.5 218.5h-208z" />
<glyph unicode="&#x2122;" horiz-adv-x="2544" d="M102 1127v367h898v-367h-154v230h-192v-667h149v-138h-503v138h151v667h-194v-230h-155zM1073 552v138h132v667h-132v137h402l267 -639l273 639h420v-137h-132v-667h132v-138h-449v138h125v613l-332 -751h-79l-342 749v-611h124v-138h-409z" />
<glyph unicode="&#xe000;" horiz-adv-x="1045" d="M0 1045h1045v-1045h-1045v1045z" />
<glyph unicode="&#xfb01;" horiz-adv-x="1404" d="M73 872v172h159v126q0 77 18 141t58 109.5t103 71t154 25.5q54 0 105.5 -12t91.5 -43.5t64 -85t24 -135.5h-191q0 59 -27 83t-59 24q-54 0 -75.5 -42t-21.5 -140v-122h742v-871h168v-173h-578v173h169v699h-501v-699h194v-173h-593v173h155v699h-159zM975 1376 q0 27 11.5 52t29.5 42.5t43.5 28t54.5 10.5q30 0 56 -10.5t45 -28t30 -42.5t11 -52q0 -28 -11 -52t-30 -42t-45 -28t-56 -10q-29 0 -54.5 10t-43.5 28t-29.5 42t-11.5 52z" />
<glyph unicode="&#xfb02;" horiz-adv-x="1398" d="M73 872v172h159v126q0 77 18 137.5t58 102t103 63t154 21.5h627v-1321h166v-173h-587v173h180v1149h-378q-27 0 -45.5 -6t-30 -23t-16.5 -47.5t-5 -79.5v-122h191v-172h-191v-699h194v-173h-593v173h155v699h-159z" />
<glyph unicode="&#xfb03;" horiz-adv-x="2190" d="M1570 0v173h169v699h-169v172h410v-871h169v-173h-579zM1719 1376q0 27 11 52t29.5 42.5t44 28t54.5 10.5q30 0 55.5 -10.5t45 -28t30.5 -42.5t11 -52q0 -28 -11 -52t-30.5 -42t-45 -28t-55.5 -10q-29 0 -54.5 10t-44 28t-29.5 42t-11 52zM817 872v172h159v126 q0 77 18 141t58 109.5t103 71t154 25.5q54 0 105.5 -12t91.5 -43.5t64 -85t24 -135.5h-191q0 59 -27 83t-59 24q-54 0 -75.5 -42t-21.5 -140v-122h191v-172h-191v-699h194v-173h-593v173h155v699h-159zM73 872v172h159v126q0 77 18 141t58 109.5t103 71t154 25.5 q54 0 105.5 -12t91.5 -43.5t64 -85t24 -135.5h-191q0 59 -27 83t-59 24q-54 0 -75.5 -42t-21.5 -140v-122h191v-172h-191v-699h194v-173h-593v173h155v699h-159z" />
<glyph unicode="&#xfb04;" horiz-adv-x="2172" d="M1532 0v173h186v1149h-183v172h424v-1321h166v-173h-593zM817 872v172h159v126q0 77 18 141t58 109.5t103 71t154 25.5q54 0 105.5 -12t91.5 -43.5t64 -85t24 -135.5h-191q0 59 -27 83t-59 24q-54 0 -75.5 -42t-21.5 -140v-122h191v-172h-191v-699h194v-173h-593v173h155 v699h-159zM73 872v172h159v126q0 77 18 141t58 109.5t103 71t154 25.5q54 0 105.5 -12t91.5 -43.5t64 -85t24 -135.5h-191q0 59 -27 83t-59 24q-54 0 -75.5 -42t-21.5 -140v-122h191v-172h-191v-699h194v-173h-593v173h155v699h-159z" />
</font>
</defs>
</svg>
